<svg width="849" height="409" viewBox="0 0 849 409" fill="none" xmlns="http://www.w3.org/2000/svg">
<g filter="url(#filter0_d_10_704)">
<circle cx="282" cy="329" r="15" fill="#EEEEEE"/>
<circle cx="303" cy="349" r="10" fill="#EEEEEE"/>
<circle cx="319" cy="364" r="5" fill="#EEEEEE"/>
<ellipse cx="410" cy="96.5" rx="86" ry="76.5" fill="#EEEEEE"/>
<ellipse cx="524" cy="114.5" rx="86" ry="76.5" fill="#EEEEEE"/>
<ellipse cx="647" cy="150.5" rx="86" ry="76.5" fill="#EEEEEE"/>
<ellipse cx="744" cy="176" rx="75" ry="62" fill="#EEEEEE"/>
<ellipse cx="668" cy="191.5" rx="86" ry="76.5" fill="#EEEEEE"/>
<ellipse cx="597" cy="210.5" rx="86" ry="76.5" fill="#EEEEEE"/>
<ellipse cx="526" cy="229.5" rx="86" ry="76.5" fill="#EEEEEE"/>
<ellipse cx="410" cy="229.5" rx="86" ry="76.5" fill="#EEEEEE"/>
<ellipse cx="294" cy="229.5" rx="86" ry="76.5" fill="#EEEEEE"/>
<ellipse cx="181" cy="210.5" rx="86" ry="76.5" fill="#EEEEEE"/>
<ellipse cx="298" cy="131.5" rx="86" ry="76.5" fill="#EEEEEE"/>
<ellipse cx="206" cy="150.5" rx="86" ry="76.5" fill="#EEEEEE"/>
<ellipse cx="105.5" cy="182" rx="75.5" ry="64" fill="#EEEEEE"/>
</g>
<ellipse cx="459" cy="158" rx="79" ry="43" fill="#EEEEEE"/>
<defs>
<filter id="filter0_d_10_704" x="0" y="0" width="849" height="409" filterUnits="userSpaceOnUse" color-interpolation-filters="sRGB">
<feFlood flood-opacity="0" result="BackgroundImageFix"/>
<feColorMatrix in="SourceAlpha" type="matrix" values="0 0 0 0 0 0 0 0 0 0 0 0 0 0 0 0 0 0 127 0" result="hardAlpha"/>
<feOffset dy="10"/>
<feGaussianBlur stdDeviation="15"/>
<feComposite in2="hardAlpha" operator="out"/>
<feColorMatrix type="matrix" values="0 0 0 0 0 0 0 0 0 0 0 0 0 0 0 0 0 0 0.4 0"/>
<feBlend mode="normal" in2="BackgroundImageFix" result="effect1_dropShadow_10_704"/>
<feBlend mode="normal" in="SourceGraphic" in2="effect1_dropShadow_10_704" result="shape"/>
</filter>
</defs>
</svg>
