<svg xmlns="http://www.w3.org/2000/svg" version="1.1" xmlns:xlink="http://www.w3.org/1999/xlink" xmlns:svgjs="http://svgjs.dev/svgjs" width="2460" height="1600" preserveAspectRatio="none" viewBox="0 0 2460 1600">
    <g mask="url(&quot;#SvgjsMask1009&quot;)" fill="none">
        <path d="M7.22 179.24L72.17 216.74L72.17 291.74L7.22 329.24L-57.73 291.74L-57.73 216.74zM72.17 291.74L137.13 329.24L137.13 404.24L72.17 441.74L7.22 404.24L7.22 329.24zM7.22 404.24L72.17 441.74L72.17 516.74L7.22 554.24L-57.73 516.74L-57.73 441.74zM72.17 516.74L137.13 554.24L137.13 629.24L72.17 666.74L7.22 629.24L7.22 554.24zM72.17 741.74L137.13 779.24L137.13 854.24L72.17 891.74L7.22 854.24L7.22 779.24zM72.17 966.74L137.13 1004.24L137.13 1079.24L72.17 1116.74L7.22 1079.24L7.22 1004.24zM7.22 1079.24L72.17 1116.74L72.17 1191.74L7.22 1229.24L-57.73 1191.74L-57.73 1116.74zM7.22 1304.24L72.17 1341.74L72.17 1416.74L7.22 1454.24L-57.73 1416.74L-57.73 1341.74zM137.13 -45.76L202.08 -8.26L202.08 66.74L137.13 104.24L72.17 66.74L72.17 -8.26zM202.08 66.74L267.04 104.24L267.04 179.24L202.08 216.74L137.13 179.24L137.13 104.24zM137.13 179.24L202.08 216.74L202.08 291.74L137.13 329.24L72.17 291.74L72.17 216.74zM202.08 291.74L267.04 329.24L267.04 404.24L202.08 441.74L137.13 404.24L137.13 329.24zM137.13 629.24L202.08 666.74L202.08 741.74L137.13 779.24L72.17 741.74L72.17 666.74zM202.08 741.74L267.04 779.24L267.04 854.24L202.08 891.74L137.13 854.24L137.13 779.24zM137.13 854.24L202.08 891.74L202.08 966.74L137.13 1004.24L72.17 966.74L72.17 891.74zM202.08 1191.74L267.04 1229.24L267.04 1304.24L202.08 1341.74L137.13 1304.24L137.13 1229.24zM137.13 1304.24L202.08 1341.74L202.08 1416.74L137.13 1454.24L72.17 1416.74L72.17 1341.74zM331.99 66.74L396.94 104.24L396.94 179.24L331.99 216.74L267.04 179.24L267.04 104.24zM267.04 404.24L331.99 441.74L331.99 516.74L267.04 554.24L202.08 516.74L202.08 441.74zM331.99 516.74L396.94 554.24L396.94 629.24L331.99 666.74L267.04 629.24L267.04 554.24zM267.04 1079.24L331.99 1116.74L331.99 1191.74L267.04 1229.24L202.08 1191.74L202.08 1116.74zM331.99 1416.74L396.94 1454.24L396.94 1529.24L331.99 1566.74L267.04 1529.24L267.04 1454.24zM461.9 66.74L526.85 104.24L526.85 179.24L461.9 216.74L396.94 179.24L396.94 104.24zM396.94 179.24L461.9 216.74L461.9 291.74L396.94 329.24L331.99 291.74L331.99 216.74zM461.9 741.74L526.85 779.24L526.85 854.24L461.9 891.74L396.94 854.24L396.94 779.24zM396.94 854.24L461.9 891.74L461.9 966.74L396.94 1004.24L331.99 966.74L331.99 891.74zM461.9 1191.74L526.85 1229.24L526.85 1304.24L461.9 1341.74L396.94 1304.24L396.94 1229.24zM461.9 1416.74L526.85 1454.24L526.85 1529.24L461.9 1566.74L396.94 1529.24L396.94 1454.24zM526.85 179.24L591.8 216.74L591.8 291.74L526.85 329.24L461.9 291.74L461.9 216.74zM526.85 404.24L591.8 441.74L591.8 516.74L526.85 554.24L461.9 516.74L461.9 441.74zM591.8 741.74L656.76 779.24L656.76 854.24L591.8 891.74L526.85 854.24L526.85 779.24zM591.8 966.74L656.76 1004.24L656.76 1079.24L591.8 1116.74L526.85 1079.24L526.85 1004.24zM591.8 1191.74L656.76 1229.24L656.76 1304.24L591.8 1341.74L526.85 1304.24L526.85 1229.24zM721.71 516.74L786.67 554.24L786.67 629.24L721.71 666.74L656.76 629.24L656.76 554.24zM656.76 629.24L721.71 666.74L721.71 741.74L656.76 779.24L591.8 741.74L591.8 666.74zM721.71 741.74L786.67 779.24L786.67 854.24L721.71 891.74L656.76 854.24L656.76 779.24zM721.71 966.74L786.67 1004.24L786.67 1079.24L721.71 1116.74L656.76 1079.24L656.76 1004.24zM721.71 1191.74L786.67 1229.24L786.67 1304.24L721.71 1341.74L656.76 1304.24L656.76 1229.24zM851.62 66.74L916.57 104.24L916.57 179.24L851.62 216.74L786.66 179.24L786.66 104.24zM786.66 179.24L851.62 216.74L851.62 291.74L786.66 329.24L721.71 291.74L721.71 216.74zM786.66 629.24L851.62 666.74L851.62 741.74L786.66 779.24L721.71 741.74L721.71 666.74zM851.62 741.74L916.57 779.24L916.57 854.24L851.62 891.74L786.66 854.24L786.66 779.24zM851.62 966.74L916.57 1004.24L916.57 1079.24L851.62 1116.74L786.66 1079.24L786.66 1004.24zM786.66 1079.24L851.62 1116.74L851.62 1191.74L786.66 1229.24L721.71 1191.74L721.71 1116.74zM786.66 1304.24L851.62 1341.74L851.62 1416.74L786.66 1454.24L721.71 1416.74L721.71 1341.74zM786.66 1529.24L851.62 1566.74L851.62 1641.74L786.66 1679.24L721.71 1641.74L721.71 1566.74zM981.53 66.74L1046.48 104.24L1046.48 179.24L981.53 216.74L916.57 179.24L916.57 104.24zM916.57 179.24L981.53 216.74L981.53 291.74L916.57 329.24L851.62 291.74L851.62 216.74zM981.53 291.74L1046.48 329.24L1046.48 404.24L981.53 441.74L916.57 404.24L916.57 329.24zM916.57 404.24L981.53 441.74L981.53 516.74L916.57 554.24L851.62 516.74L851.62 441.74zM916.57 1304.24L981.53 1341.74L981.53 1416.74L916.57 1454.24L851.62 1416.74L851.62 1341.74zM981.53 1416.74L1046.48 1454.24L1046.48 1529.24L981.53 1566.74L916.57 1529.24L916.57 1454.24zM1046.48 -45.76L1111.43 -8.26L1111.43 66.74L1046.48 104.24L981.53 66.74L981.53 -8.26zM1111.43 291.74L1176.39 329.24L1176.39 404.24L1111.43 441.74L1046.48 404.24L1046.48 329.24zM1046.48 404.24L1111.43 441.74L1111.43 516.74L1046.48 554.24L981.53 516.74L981.53 441.74zM1046.48 629.24L1111.43 666.74L1111.43 741.74L1046.48 779.24L981.53 741.74L981.53 666.74zM1111.43 966.74L1176.39 1004.24L1176.39 1079.24L1111.43 1116.74L1046.48 1079.24L1046.48 1004.24zM1046.48 1079.24L1111.43 1116.74L1111.43 1191.74L1046.48 1229.24L981.53 1191.74L981.53 1116.74zM1046.48 1304.24L1111.43 1341.74L1111.43 1416.74L1046.48 1454.24L981.53 1416.74L981.53 1341.74zM1241.34 66.74L1306.29 104.24L1306.29 179.24L1241.34 216.74L1176.39 179.24L1176.39 104.24zM1176.39 404.24L1241.34 441.74L1241.34 516.74L1176.39 554.24L1111.43 516.74L1111.43 441.74zM1176.39 629.24L1241.34 666.74L1241.34 741.74L1176.39 779.24L1111.43 741.74L1111.43 666.74zM1241.34 741.74L1306.29 779.24L1306.29 854.24L1241.34 891.74L1176.39 854.24L1176.39 779.24zM1241.34 966.74L1306.29 1004.24L1306.29 1079.24L1241.34 1116.74L1176.39 1079.24L1176.39 1004.24zM1241.34 1191.74L1306.29 1229.24L1306.29 1304.24L1241.34 1341.74L1176.39 1304.24L1176.39 1229.24zM1306.3 404.24L1371.25 441.74L1371.25 516.74L1306.3 554.24L1241.34 516.74L1241.34 441.74zM1306.3 1079.24L1371.25 1116.74L1371.25 1191.74L1306.3 1229.24L1241.34 1191.74L1241.34 1116.74zM1306.3 1304.24L1371.25 1341.74L1371.25 1416.74L1306.3 1454.24L1241.34 1416.74L1241.34 1341.74zM1371.25 1416.74L1436.2 1454.24L1436.2 1529.24L1371.25 1566.74L1306.3 1529.24L1306.3 1454.24zM1436.2 -45.76L1501.16 -8.26L1501.16 66.74L1436.2 104.24L1371.25 66.74L1371.25 -8.26zM1436.2 404.24L1501.16 441.74L1501.16 516.74L1436.2 554.24L1371.25 516.74L1371.25 441.74zM1501.16 516.74L1566.11 554.24L1566.11 629.24L1501.16 666.74L1436.2 629.24L1436.2 554.24zM1436.2 629.24L1501.16 666.74L1501.16 741.74L1436.2 779.24L1371.25 741.74L1371.25 666.74zM1501.16 741.74L1566.11 779.24L1566.11 854.24L1501.16 891.74L1436.2 854.24L1436.2 779.24zM1501.16 1416.74L1566.11 1454.24L1566.11 1529.24L1501.16 1566.74L1436.2 1529.24L1436.2 1454.24zM1631.06 516.74L1696.02 554.24L1696.02 629.24L1631.06 666.74L1566.11 629.24L1566.11 554.24zM1566.11 854.24L1631.06 891.74L1631.06 966.74L1566.11 1004.24L1501.16 966.74L1501.16 891.74zM1566.11 1079.24L1631.06 1116.74L1631.06 1191.74L1566.11 1229.24L1501.16 1191.74L1501.16 1116.74zM1566.11 1304.24L1631.06 1341.74L1631.06 1416.74L1566.11 1454.24L1501.16 1416.74L1501.16 1341.74zM1696.02 -45.76L1760.97 -8.26L1760.97 66.74L1696.02 104.24L1631.06 66.74L1631.06 -8.26zM1696.02 179.24L1760.97 216.74L1760.97 291.74L1696.02 329.24L1631.06 291.74L1631.06 216.74zM1696.02 404.24L1760.97 441.74L1760.97 516.74L1696.02 554.24L1631.06 516.74L1631.06 441.74zM1760.97 516.74L1825.92 554.24L1825.92 629.24L1760.97 666.74L1696.02 629.24L1696.02 554.24zM1696.02 1304.24L1760.97 1341.74L1760.97 1416.74L1696.02 1454.24L1631.06 1416.74L1631.06 1341.74zM1696.02 1529.24L1760.97 1566.74L1760.97 1641.74L1696.02 1679.24L1631.06 1641.74L1631.06 1566.74zM1825.92 -45.76L1890.88 -8.26L1890.88 66.74L1825.92 104.24L1760.97 66.74L1760.97 -8.26zM1890.88 66.74L1955.83 104.24L1955.83 179.24L1890.88 216.74L1825.92 179.24L1825.92 104.24zM1825.92 179.24L1890.88 216.74L1890.88 291.74L1825.92 329.24L1760.97 291.74L1760.97 216.74zM1890.88 291.74L1955.83 329.24L1955.83 404.24L1890.88 441.74L1825.92 404.24L1825.92 329.24zM1890.88 516.74L1955.83 554.24L1955.83 629.24L1890.88 666.74L1825.92 629.24L1825.92 554.24zM1825.92 1079.24L1890.88 1116.74L1890.88 1191.74L1825.92 1229.24L1760.97 1191.74L1760.97 1116.74zM1825.92 1304.24L1890.88 1341.74L1890.88 1416.74L1825.92 1454.24L1760.97 1416.74L1760.97 1341.74zM1825.92 1529.24L1890.88 1566.74L1890.88 1641.74L1825.92 1679.24L1760.97 1641.74L1760.97 1566.74zM1955.83 -45.76L2020.79 -8.26L2020.79 66.74L1955.83 104.24L1890.88 66.74L1890.88 -8.26zM1955.83 179.24L2020.79 216.74L2020.79 291.74L1955.83 329.24L1890.88 291.74L1890.88 216.74zM1955.83 629.24L2020.79 666.74L2020.79 741.74L1955.83 779.24L1890.88 741.74L1890.88 666.74zM1955.83 1529.24L2020.79 1566.74L2020.79 1641.74L1955.83 1679.24L1890.88 1641.74L1890.88 1566.74zM2085.74 179.24L2150.69 216.74L2150.69 291.74L2085.74 329.24L2020.79 291.74L2020.79 216.74zM2150.69 741.74L2215.65 779.24L2215.65 854.24L2150.69 891.74L2085.74 854.24L2085.74 779.24zM2085.74 854.24L2150.69 891.74L2150.69 966.74L2085.74 1004.24L2020.79 966.74L2020.79 891.74zM2150.69 966.74L2215.65 1004.24L2215.65 1079.24L2150.69 1116.74L2085.74 1079.24L2085.74 1004.24zM2150.69 1416.74L2215.65 1454.24L2215.65 1529.24L2150.69 1566.74L2085.74 1529.24L2085.74 1454.24zM2085.74 1529.24L2150.69 1566.74L2150.69 1641.74L2085.74 1679.24L2020.79 1641.74L2020.79 1566.74zM2280.6 66.74L2345.55 104.24L2345.55 179.24L2280.6 216.74L2215.65 179.24L2215.65 104.24zM2215.65 1304.24L2280.6 1341.74L2280.6 1416.74L2215.65 1454.24L2150.69 1416.74L2150.69 1341.74zM2280.6 1416.74L2345.55 1454.24L2345.55 1529.24L2280.6 1566.74L2215.65 1529.24L2215.65 1454.24zM2215.65 1529.24L2280.6 1566.74L2280.6 1641.74L2215.65 1679.24L2150.69 1641.74L2150.69 1566.74zM2410.51 66.74L2475.46 104.24L2475.46 179.24L2410.51 216.74L2345.55 179.24L2345.55 104.24zM2345.55 404.24L2410.51 441.74L2410.51 516.74L2345.55 554.24L2280.6 516.74L2280.6 441.74zM2345.55 1079.24L2410.51 1116.74L2410.51 1191.74L2345.55 1229.24L2280.6 1191.74L2280.6 1116.74zM2410.51 1191.74L2475.46 1229.24L2475.46 1304.24L2410.51 1341.74L2345.55 1304.24L2345.55 1229.24zM2345.55 1529.24L2410.51 1566.74L2410.51 1641.74L2345.55 1679.24L2280.6 1641.74L2280.6 1566.74z" stroke="#03305d" stroke-width="2"></path>
        <path d="M-0.28 179.24 a7.5 7.5 0 1 0 15 0 a7.5 7.5 0 1 0 -15 0zM64.67 216.74 a7.5 7.5 0 1 0 15 0 a7.5 7.5 0 1 0 -15 0zM64.67 291.74 a7.5 7.5 0 1 0 15 0 a7.5 7.5 0 1 0 -15 0zM-0.28 329.24 a7.5 7.5 0 1 0 15 0 a7.5 7.5 0 1 0 -15 0zM-65.23 291.74 a7.5 7.5 0 1 0 15 0 a7.5 7.5 0 1 0 -15 0zM-65.23 216.74 a7.5 7.5 0 1 0 15 0 a7.5 7.5 0 1 0 -15 0zM129.63 329.24 a7.5 7.5 0 1 0 15 0 a7.5 7.5 0 1 0 -15 0zM129.63 404.24 a7.5 7.5 0 1 0 15 0 a7.5 7.5 0 1 0 -15 0zM64.67 441.74 a7.5 7.5 0 1 0 15 0 a7.5 7.5 0 1 0 -15 0zM-0.28 404.24 a7.5 7.5 0 1 0 15 0 a7.5 7.5 0 1 0 -15 0zM64.67 516.74 a7.5 7.5 0 1 0 15 0 a7.5 7.5 0 1 0 -15 0zM-0.28 554.24 a7.5 7.5 0 1 0 15 0 a7.5 7.5 0 1 0 -15 0zM-65.23 516.74 a7.5 7.5 0 1 0 15 0 a7.5 7.5 0 1 0 -15 0zM-65.23 441.74 a7.5 7.5 0 1 0 15 0 a7.5 7.5 0 1 0 -15 0zM129.63 554.24 a7.5 7.5 0 1 0 15 0 a7.5 7.5 0 1 0 -15 0zM129.63 629.24 a7.5 7.5 0 1 0 15 0 a7.5 7.5 0 1 0 -15 0zM64.67 666.74 a7.5 7.5 0 1 0 15 0 a7.5 7.5 0 1 0 -15 0zM-0.28 629.24 a7.5 7.5 0 1 0 15 0 a7.5 7.5 0 1 0 -15 0zM64.67 741.74 a7.5 7.5 0 1 0 15 0 a7.5 7.5 0 1 0 -15 0zM129.63 779.24 a7.5 7.5 0 1 0 15 0 a7.5 7.5 0 1 0 -15 0zM129.63 854.24 a7.5 7.5 0 1 0 15 0 a7.5 7.5 0 1 0 -15 0zM64.67 891.74 a7.5 7.5 0 1 0 15 0 a7.5 7.5 0 1 0 -15 0zM-0.28 854.24 a7.5 7.5 0 1 0 15 0 a7.5 7.5 0 1 0 -15 0zM-0.28 779.24 a7.5 7.5 0 1 0 15 0 a7.5 7.5 0 1 0 -15 0zM64.67 966.74 a7.5 7.5 0 1 0 15 0 a7.5 7.5 0 1 0 -15 0zM129.63 1004.24 a7.5 7.5 0 1 0 15 0 a7.5 7.5 0 1 0 -15 0zM129.63 1079.24 a7.5 7.5 0 1 0 15 0 a7.5 7.5 0 1 0 -15 0zM64.67 1116.74 a7.5 7.5 0 1 0 15 0 a7.5 7.5 0 1 0 -15 0zM-0.28 1079.24 a7.5 7.5 0 1 0 15 0 a7.5 7.5 0 1 0 -15 0zM-0.28 1004.24 a7.5 7.5 0 1 0 15 0 a7.5 7.5 0 1 0 -15 0zM64.67 1191.74 a7.5 7.5 0 1 0 15 0 a7.5 7.5 0 1 0 -15 0zM-0.28 1229.24 a7.5 7.5 0 1 0 15 0 a7.5 7.5 0 1 0 -15 0zM-65.23 1191.74 a7.5 7.5 0 1 0 15 0 a7.5 7.5 0 1 0 -15 0zM-65.23 1116.74 a7.5 7.5 0 1 0 15 0 a7.5 7.5 0 1 0 -15 0zM-0.28 1304.24 a7.5 7.5 0 1 0 15 0 a7.5 7.5 0 1 0 -15 0zM64.67 1341.74 a7.5 7.5 0 1 0 15 0 a7.5 7.5 0 1 0 -15 0zM64.67 1416.74 a7.5 7.5 0 1 0 15 0 a7.5 7.5 0 1 0 -15 0zM-0.28 1454.24 a7.5 7.5 0 1 0 15 0 a7.5 7.5 0 1 0 -15 0zM-65.23 1416.74 a7.5 7.5 0 1 0 15 0 a7.5 7.5 0 1 0 -15 0zM-65.23 1341.74 a7.5 7.5 0 1 0 15 0 a7.5 7.5 0 1 0 -15 0zM129.63 -45.76 a7.5 7.5 0 1 0 15 0 a7.5 7.5 0 1 0 -15 0zM194.58 -8.26 a7.5 7.5 0 1 0 15 0 a7.5 7.5 0 1 0 -15 0zM194.58 66.74 a7.5 7.5 0 1 0 15 0 a7.5 7.5 0 1 0 -15 0zM129.63 104.24 a7.5 7.5 0 1 0 15 0 a7.5 7.5 0 1 0 -15 0zM64.67 66.74 a7.5 7.5 0 1 0 15 0 a7.5 7.5 0 1 0 -15 0zM64.67 -8.26 a7.5 7.5 0 1 0 15 0 a7.5 7.5 0 1 0 -15 0zM259.54 104.24 a7.5 7.5 0 1 0 15 0 a7.5 7.5 0 1 0 -15 0zM259.54 179.24 a7.5 7.5 0 1 0 15 0 a7.5 7.5 0 1 0 -15 0zM194.58 216.74 a7.5 7.5 0 1 0 15 0 a7.5 7.5 0 1 0 -15 0zM129.63 179.24 a7.5 7.5 0 1 0 15 0 a7.5 7.5 0 1 0 -15 0zM194.58 291.74 a7.5 7.5 0 1 0 15 0 a7.5 7.5 0 1 0 -15 0zM259.54 329.24 a7.5 7.5 0 1 0 15 0 a7.5 7.5 0 1 0 -15 0zM259.54 404.24 a7.5 7.5 0 1 0 15 0 a7.5 7.5 0 1 0 -15 0zM194.58 441.74 a7.5 7.5 0 1 0 15 0 a7.5 7.5 0 1 0 -15 0zM194.58 666.74 a7.5 7.5 0 1 0 15 0 a7.5 7.5 0 1 0 -15 0zM194.58 741.74 a7.5 7.5 0 1 0 15 0 a7.5 7.5 0 1 0 -15 0zM259.54 779.24 a7.5 7.5 0 1 0 15 0 a7.5 7.5 0 1 0 -15 0zM259.54 854.24 a7.5 7.5 0 1 0 15 0 a7.5 7.5 0 1 0 -15 0zM194.58 891.74 a7.5 7.5 0 1 0 15 0 a7.5 7.5 0 1 0 -15 0zM194.58 966.74 a7.5 7.5 0 1 0 15 0 a7.5 7.5 0 1 0 -15 0zM194.58 1191.74 a7.5 7.5 0 1 0 15 0 a7.5 7.5 0 1 0 -15 0zM259.54 1229.24 a7.5 7.5 0 1 0 15 0 a7.5 7.5 0 1 0 -15 0zM259.54 1304.24 a7.5 7.5 0 1 0 15 0 a7.5 7.5 0 1 0 -15 0zM194.58 1341.74 a7.5 7.5 0 1 0 15 0 a7.5 7.5 0 1 0 -15 0zM129.63 1304.24 a7.5 7.5 0 1 0 15 0 a7.5 7.5 0 1 0 -15 0zM129.63 1229.24 a7.5 7.5 0 1 0 15 0 a7.5 7.5 0 1 0 -15 0zM194.58 1416.74 a7.5 7.5 0 1 0 15 0 a7.5 7.5 0 1 0 -15 0zM129.63 1454.24 a7.5 7.5 0 1 0 15 0 a7.5 7.5 0 1 0 -15 0zM324.49 66.74 a7.5 7.5 0 1 0 15 0 a7.5 7.5 0 1 0 -15 0zM389.44 104.24 a7.5 7.5 0 1 0 15 0 a7.5 7.5 0 1 0 -15 0zM389.44 179.24 a7.5 7.5 0 1 0 15 0 a7.5 7.5 0 1 0 -15 0zM324.49 216.74 a7.5 7.5 0 1 0 15 0 a7.5 7.5 0 1 0 -15 0zM324.49 441.74 a7.5 7.5 0 1 0 15 0 a7.5 7.5 0 1 0 -15 0zM324.49 516.74 a7.5 7.5 0 1 0 15 0 a7.5 7.5 0 1 0 -15 0zM259.54 554.24 a7.5 7.5 0 1 0 15 0 a7.5 7.5 0 1 0 -15 0zM194.58 516.74 a7.5 7.5 0 1 0 15 0 a7.5 7.5 0 1 0 -15 0zM389.44 554.24 a7.5 7.5 0 1 0 15 0 a7.5 7.5 0 1 0 -15 0zM389.44 629.24 a7.5 7.5 0 1 0 15 0 a7.5 7.5 0 1 0 -15 0zM324.49 666.74 a7.5 7.5 0 1 0 15 0 a7.5 7.5 0 1 0 -15 0zM259.54 629.24 a7.5 7.5 0 1 0 15 0 a7.5 7.5 0 1 0 -15 0zM259.54 1079.24 a7.5 7.5 0 1 0 15 0 a7.5 7.5 0 1 0 -15 0zM324.49 1116.74 a7.5 7.5 0 1 0 15 0 a7.5 7.5 0 1 0 -15 0zM324.49 1191.74 a7.5 7.5 0 1 0 15 0 a7.5 7.5 0 1 0 -15 0zM194.58 1116.74 a7.5 7.5 0 1 0 15 0 a7.5 7.5 0 1 0 -15 0zM324.49 1416.74 a7.5 7.5 0 1 0 15 0 a7.5 7.5 0 1 0 -15 0zM389.44 1454.24 a7.5 7.5 0 1 0 15 0 a7.5 7.5 0 1 0 -15 0zM389.44 1529.24 a7.5 7.5 0 1 0 15 0 a7.5 7.5 0 1 0 -15 0zM324.49 1566.74 a7.5 7.5 0 1 0 15 0 a7.5 7.5 0 1 0 -15 0zM259.54 1529.24 a7.5 7.5 0 1 0 15 0 a7.5 7.5 0 1 0 -15 0zM259.54 1454.24 a7.5 7.5 0 1 0 15 0 a7.5 7.5 0 1 0 -15 0zM454.4 66.74 a7.5 7.5 0 1 0 15 0 a7.5 7.5 0 1 0 -15 0zM519.35 104.24 a7.5 7.5 0 1 0 15 0 a7.5 7.5 0 1 0 -15 0zM519.35 179.24 a7.5 7.5 0 1 0 15 0 a7.5 7.5 0 1 0 -15 0zM454.4 216.74 a7.5 7.5 0 1 0 15 0 a7.5 7.5 0 1 0 -15 0zM454.4 291.74 a7.5 7.5 0 1 0 15 0 a7.5 7.5 0 1 0 -15 0zM389.44 329.24 a7.5 7.5 0 1 0 15 0 a7.5 7.5 0 1 0 -15 0zM324.49 291.74 a7.5 7.5 0 1 0 15 0 a7.5 7.5 0 1 0 -15 0zM454.4 741.74 a7.5 7.5 0 1 0 15 0 a7.5 7.5 0 1 0 -15 0zM519.35 779.24 a7.5 7.5 0 1 0 15 0 a7.5 7.5 0 1 0 -15 0zM519.35 854.24 a7.5 7.5 0 1 0 15 0 a7.5 7.5 0 1 0 -15 0zM454.4 891.74 a7.5 7.5 0 1 0 15 0 a7.5 7.5 0 1 0 -15 0zM389.44 854.24 a7.5 7.5 0 1 0 15 0 a7.5 7.5 0 1 0 -15 0zM389.44 779.24 a7.5 7.5 0 1 0 15 0 a7.5 7.5 0 1 0 -15 0zM454.4 966.74 a7.5 7.5 0 1 0 15 0 a7.5 7.5 0 1 0 -15 0zM389.44 1004.24 a7.5 7.5 0 1 0 15 0 a7.5 7.5 0 1 0 -15 0zM324.49 966.74 a7.5 7.5 0 1 0 15 0 a7.5 7.5 0 1 0 -15 0zM324.49 891.74 a7.5 7.5 0 1 0 15 0 a7.5 7.5 0 1 0 -15 0zM454.4 1191.74 a7.5 7.5 0 1 0 15 0 a7.5 7.5 0 1 0 -15 0zM519.35 1229.24 a7.5 7.5 0 1 0 15 0 a7.5 7.5 0 1 0 -15 0zM519.35 1304.24 a7.5 7.5 0 1 0 15 0 a7.5 7.5 0 1 0 -15 0zM454.4 1341.74 a7.5 7.5 0 1 0 15 0 a7.5 7.5 0 1 0 -15 0zM389.44 1304.24 a7.5 7.5 0 1 0 15 0 a7.5 7.5 0 1 0 -15 0zM389.44 1229.24 a7.5 7.5 0 1 0 15 0 a7.5 7.5 0 1 0 -15 0zM454.4 1416.74 a7.5 7.5 0 1 0 15 0 a7.5 7.5 0 1 0 -15 0zM519.35 1454.24 a7.5 7.5 0 1 0 15 0 a7.5 7.5 0 1 0 -15 0zM519.35 1529.24 a7.5 7.5 0 1 0 15 0 a7.5 7.5 0 1 0 -15 0zM454.4 1566.74 a7.5 7.5 0 1 0 15 0 a7.5 7.5 0 1 0 -15 0zM584.3 216.74 a7.5 7.5 0 1 0 15 0 a7.5 7.5 0 1 0 -15 0zM584.3 291.74 a7.5 7.5 0 1 0 15 0 a7.5 7.5 0 1 0 -15 0zM519.35 329.24 a7.5 7.5 0 1 0 15 0 a7.5 7.5 0 1 0 -15 0zM519.35 404.24 a7.5 7.5 0 1 0 15 0 a7.5 7.5 0 1 0 -15 0zM584.3 441.74 a7.5 7.5 0 1 0 15 0 a7.5 7.5 0 1 0 -15 0zM584.3 516.74 a7.5 7.5 0 1 0 15 0 a7.5 7.5 0 1 0 -15 0zM519.35 554.24 a7.5 7.5 0 1 0 15 0 a7.5 7.5 0 1 0 -15 0zM454.4 516.74 a7.5 7.5 0 1 0 15 0 a7.5 7.5 0 1 0 -15 0zM454.4 441.74 a7.5 7.5 0 1 0 15 0 a7.5 7.5 0 1 0 -15 0zM584.3 741.74 a7.5 7.5 0 1 0 15 0 a7.5 7.5 0 1 0 -15 0zM649.26 779.24 a7.5 7.5 0 1 0 15 0 a7.5 7.5 0 1 0 -15 0zM649.26 854.24 a7.5 7.5 0 1 0 15 0 a7.5 7.5 0 1 0 -15 0zM584.3 891.74 a7.5 7.5 0 1 0 15 0 a7.5 7.5 0 1 0 -15 0zM584.3 966.74 a7.5 7.5 0 1 0 15 0 a7.5 7.5 0 1 0 -15 0zM649.26 1004.24 a7.5 7.5 0 1 0 15 0 a7.5 7.5 0 1 0 -15 0zM649.26 1079.24 a7.5 7.5 0 1 0 15 0 a7.5 7.5 0 1 0 -15 0zM584.3 1116.74 a7.5 7.5 0 1 0 15 0 a7.5 7.5 0 1 0 -15 0zM519.35 1079.24 a7.5 7.5 0 1 0 15 0 a7.5 7.5 0 1 0 -15 0zM519.35 1004.24 a7.5 7.5 0 1 0 15 0 a7.5 7.5 0 1 0 -15 0zM584.3 1191.74 a7.5 7.5 0 1 0 15 0 a7.5 7.5 0 1 0 -15 0zM649.26 1229.24 a7.5 7.5 0 1 0 15 0 a7.5 7.5 0 1 0 -15 0zM649.26 1304.24 a7.5 7.5 0 1 0 15 0 a7.5 7.5 0 1 0 -15 0zM584.3 1341.74 a7.5 7.5 0 1 0 15 0 a7.5 7.5 0 1 0 -15 0zM714.21 516.74 a7.5 7.5 0 1 0 15 0 a7.5 7.5 0 1 0 -15 0zM779.17 554.24 a7.5 7.5 0 1 0 15 0 a7.5 7.5 0 1 0 -15 0zM779.17 629.24 a7.5 7.5 0 1 0 15 0 a7.5 7.5 0 1 0 -15 0zM714.21 666.74 a7.5 7.5 0 1 0 15 0 a7.5 7.5 0 1 0 -15 0zM649.26 629.24 a7.5 7.5 0 1 0 15 0 a7.5 7.5 0 1 0 -15 0zM649.26 554.24 a7.5 7.5 0 1 0 15 0 a7.5 7.5 0 1 0 -15 0zM714.21 741.74 a7.5 7.5 0 1 0 15 0 a7.5 7.5 0 1 0 -15 0zM584.3 666.74 a7.5 7.5 0 1 0 15 0 a7.5 7.5 0 1 0 -15 0zM779.17 779.24 a7.5 7.5 0 1 0 15 0 a7.5 7.5 0 1 0 -15 0zM779.17 854.24 a7.5 7.5 0 1 0 15 0 a7.5 7.5 0 1 0 -15 0zM714.21 891.74 a7.5 7.5 0 1 0 15 0 a7.5 7.5 0 1 0 -15 0zM714.21 966.74 a7.5 7.5 0 1 0 15 0 a7.5 7.5 0 1 0 -15 0zM779.17 1004.24 a7.5 7.5 0 1 0 15 0 a7.5 7.5 0 1 0 -15 0zM779.17 1079.24 a7.5 7.5 0 1 0 15 0 a7.5 7.5 0 1 0 -15 0zM714.21 1116.74 a7.5 7.5 0 1 0 15 0 a7.5 7.5 0 1 0 -15 0zM714.21 1191.74 a7.5 7.5 0 1 0 15 0 a7.5 7.5 0 1 0 -15 0zM779.17 1229.24 a7.5 7.5 0 1 0 15 0 a7.5 7.5 0 1 0 -15 0zM779.17 1304.24 a7.5 7.5 0 1 0 15 0 a7.5 7.5 0 1 0 -15 0zM714.21 1341.74 a7.5 7.5 0 1 0 15 0 a7.5 7.5 0 1 0 -15 0zM844.12 66.74 a7.5 7.5 0 1 0 15 0 a7.5 7.5 0 1 0 -15 0zM909.07 104.24 a7.5 7.5 0 1 0 15 0 a7.5 7.5 0 1 0 -15 0zM909.07 179.24 a7.5 7.5 0 1 0 15 0 a7.5 7.5 0 1 0 -15 0zM844.12 216.74 a7.5 7.5 0 1 0 15 0 a7.5 7.5 0 1 0 -15 0zM779.16 179.24 a7.5 7.5 0 1 0 15 0 a7.5 7.5 0 1 0 -15 0zM779.16 104.24 a7.5 7.5 0 1 0 15 0 a7.5 7.5 0 1 0 -15 0zM844.12 291.74 a7.5 7.5 0 1 0 15 0 a7.5 7.5 0 1 0 -15 0zM779.16 329.24 a7.5 7.5 0 1 0 15 0 a7.5 7.5 0 1 0 -15 0zM714.21 291.74 a7.5 7.5 0 1 0 15 0 a7.5 7.5 0 1 0 -15 0zM714.21 216.74 a7.5 7.5 0 1 0 15 0 a7.5 7.5 0 1 0 -15 0zM779.16 629.24 a7.5 7.5 0 1 0 15 0 a7.5 7.5 0 1 0 -15 0zM844.12 666.74 a7.5 7.5 0 1 0 15 0 a7.5 7.5 0 1 0 -15 0zM844.12 741.74 a7.5 7.5 0 1 0 15 0 a7.5 7.5 0 1 0 -15 0zM779.16 779.24 a7.5 7.5 0 1 0 15 0 a7.5 7.5 0 1 0 -15 0zM909.07 779.24 a7.5 7.5 0 1 0 15 0 a7.5 7.5 0 1 0 -15 0zM909.07 854.24 a7.5 7.5 0 1 0 15 0 a7.5 7.5 0 1 0 -15 0zM844.12 891.74 a7.5 7.5 0 1 0 15 0 a7.5 7.5 0 1 0 -15 0zM779.16 854.24 a7.5 7.5 0 1 0 15 0 a7.5 7.5 0 1 0 -15 0zM844.12 966.74 a7.5 7.5 0 1 0 15 0 a7.5 7.5 0 1 0 -15 0zM909.07 1004.24 a7.5 7.5 0 1 0 15 0 a7.5 7.5 0 1 0 -15 0zM909.07 1079.24 a7.5 7.5 0 1 0 15 0 a7.5 7.5 0 1 0 -15 0zM844.12 1116.74 a7.5 7.5 0 1 0 15 0 a7.5 7.5 0 1 0 -15 0zM779.16 1079.24 a7.5 7.5 0 1 0 15 0 a7.5 7.5 0 1 0 -15 0zM779.16 1004.24 a7.5 7.5 0 1 0 15 0 a7.5 7.5 0 1 0 -15 0zM844.12 1191.74 a7.5 7.5 0 1 0 15 0 a7.5 7.5 0 1 0 -15 0zM779.16 1229.24 a7.5 7.5 0 1 0 15 0 a7.5 7.5 0 1 0 -15 0zM779.16 1304.24 a7.5 7.5 0 1 0 15 0 a7.5 7.5 0 1 0 -15 0zM844.12 1341.74 a7.5 7.5 0 1 0 15 0 a7.5 7.5 0 1 0 -15 0zM844.12 1416.74 a7.5 7.5 0 1 0 15 0 a7.5 7.5 0 1 0 -15 0zM779.16 1454.24 a7.5 7.5 0 1 0 15 0 a7.5 7.5 0 1 0 -15 0zM714.21 1416.74 a7.5 7.5 0 1 0 15 0 a7.5 7.5 0 1 0 -15 0zM779.16 1529.24 a7.5 7.5 0 1 0 15 0 a7.5 7.5 0 1 0 -15 0zM844.12 1566.74 a7.5 7.5 0 1 0 15 0 a7.5 7.5 0 1 0 -15 0zM844.12 1641.74 a7.5 7.5 0 1 0 15 0 a7.5 7.5 0 1 0 -15 0zM779.16 1679.24 a7.5 7.5 0 1 0 15 0 a7.5 7.5 0 1 0 -15 0zM714.21 1641.74 a7.5 7.5 0 1 0 15 0 a7.5 7.5 0 1 0 -15 0zM714.21 1566.74 a7.5 7.5 0 1 0 15 0 a7.5 7.5 0 1 0 -15 0zM974.03 66.74 a7.5 7.5 0 1 0 15 0 a7.5 7.5 0 1 0 -15 0zM1038.98 104.24 a7.5 7.5 0 1 0 15 0 a7.5 7.5 0 1 0 -15 0zM1038.98 179.24 a7.5 7.5 0 1 0 15 0 a7.5 7.5 0 1 0 -15 0zM974.03 216.74 a7.5 7.5 0 1 0 15 0 a7.5 7.5 0 1 0 -15 0zM974.03 291.74 a7.5 7.5 0 1 0 15 0 a7.5 7.5 0 1 0 -15 0zM909.07 329.24 a7.5 7.5 0 1 0 15 0 a7.5 7.5 0 1 0 -15 0zM1038.98 329.24 a7.5 7.5 0 1 0 15 0 a7.5 7.5 0 1 0 -15 0zM1038.98 404.24 a7.5 7.5 0 1 0 15 0 a7.5 7.5 0 1 0 -15 0zM974.03 441.74 a7.5 7.5 0 1 0 15 0 a7.5 7.5 0 1 0 -15 0zM909.07 404.24 a7.5 7.5 0 1 0 15 0 a7.5 7.5 0 1 0 -15 0zM974.03 516.74 a7.5 7.5 0 1 0 15 0 a7.5 7.5 0 1 0 -15 0zM909.07 554.24 a7.5 7.5 0 1 0 15 0 a7.5 7.5 0 1 0 -15 0zM844.12 516.74 a7.5 7.5 0 1 0 15 0 a7.5 7.5 0 1 0 -15 0zM844.12 441.74 a7.5 7.5 0 1 0 15 0 a7.5 7.5 0 1 0 -15 0zM909.07 1304.24 a7.5 7.5 0 1 0 15 0 a7.5 7.5 0 1 0 -15 0zM974.03 1341.74 a7.5 7.5 0 1 0 15 0 a7.5 7.5 0 1 0 -15 0zM974.03 1416.74 a7.5 7.5 0 1 0 15 0 a7.5 7.5 0 1 0 -15 0zM909.07 1454.24 a7.5 7.5 0 1 0 15 0 a7.5 7.5 0 1 0 -15 0zM1038.98 1454.24 a7.5 7.5 0 1 0 15 0 a7.5 7.5 0 1 0 -15 0zM1038.98 1529.24 a7.5 7.5 0 1 0 15 0 a7.5 7.5 0 1 0 -15 0zM974.03 1566.74 a7.5 7.5 0 1 0 15 0 a7.5 7.5 0 1 0 -15 0zM909.07 1529.24 a7.5 7.5 0 1 0 15 0 a7.5 7.5 0 1 0 -15 0zM1038.98 -45.76 a7.5 7.5 0 1 0 15 0 a7.5 7.5 0 1 0 -15 0zM1103.93 -8.26 a7.5 7.5 0 1 0 15 0 a7.5 7.5 0 1 0 -15 0zM1103.93 66.74 a7.5 7.5 0 1 0 15 0 a7.5 7.5 0 1 0 -15 0zM974.03 -8.26 a7.5 7.5 0 1 0 15 0 a7.5 7.5 0 1 0 -15 0zM1103.93 291.74 a7.5 7.5 0 1 0 15 0 a7.5 7.5 0 1 0 -15 0zM1168.89 329.24 a7.5 7.5 0 1 0 15 0 a7.5 7.5 0 1 0 -15 0zM1168.89 404.24 a7.5 7.5 0 1 0 15 0 a7.5 7.5 0 1 0 -15 0zM1103.93 441.74 a7.5 7.5 0 1 0 15 0 a7.5 7.5 0 1 0 -15 0zM1103.93 516.74 a7.5 7.5 0 1 0 15 0 a7.5 7.5 0 1 0 -15 0zM1038.98 554.24 a7.5 7.5 0 1 0 15 0 a7.5 7.5 0 1 0 -15 0zM1038.98 629.24 a7.5 7.5 0 1 0 15 0 a7.5 7.5 0 1 0 -15 0zM1103.93 666.74 a7.5 7.5 0 1 0 15 0 a7.5 7.5 0 1 0 -15 0zM1103.93 741.74 a7.5 7.5 0 1 0 15 0 a7.5 7.5 0 1 0 -15 0zM1038.98 779.24 a7.5 7.5 0 1 0 15 0 a7.5 7.5 0 1 0 -15 0zM974.03 741.74 a7.5 7.5 0 1 0 15 0 a7.5 7.5 0 1 0 -15 0zM974.03 666.74 a7.5 7.5 0 1 0 15 0 a7.5 7.5 0 1 0 -15 0zM1103.93 966.74 a7.5 7.5 0 1 0 15 0 a7.5 7.5 0 1 0 -15 0zM1168.89 1004.24 a7.5 7.5 0 1 0 15 0 a7.5 7.5 0 1 0 -15 0zM1168.89 1079.24 a7.5 7.5 0 1 0 15 0 a7.5 7.5 0 1 0 -15 0zM1103.93 1116.74 a7.5 7.5 0 1 0 15 0 a7.5 7.5 0 1 0 -15 0zM1038.98 1079.24 a7.5 7.5 0 1 0 15 0 a7.5 7.5 0 1 0 -15 0zM1038.98 1004.24 a7.5 7.5 0 1 0 15 0 a7.5 7.5 0 1 0 -15 0zM1103.93 1191.74 a7.5 7.5 0 1 0 15 0 a7.5 7.5 0 1 0 -15 0zM1038.98 1229.24 a7.5 7.5 0 1 0 15 0 a7.5 7.5 0 1 0 -15 0zM974.03 1191.74 a7.5 7.5 0 1 0 15 0 a7.5 7.5 0 1 0 -15 0zM974.03 1116.74 a7.5 7.5 0 1 0 15 0 a7.5 7.5 0 1 0 -15 0zM1038.98 1304.24 a7.5 7.5 0 1 0 15 0 a7.5 7.5 0 1 0 -15 0zM1103.93 1341.74 a7.5 7.5 0 1 0 15 0 a7.5 7.5 0 1 0 -15 0zM1103.93 1416.74 a7.5 7.5 0 1 0 15 0 a7.5 7.5 0 1 0 -15 0zM1233.84 66.74 a7.5 7.5 0 1 0 15 0 a7.5 7.5 0 1 0 -15 0zM1298.79 104.24 a7.5 7.5 0 1 0 15 0 a7.5 7.5 0 1 0 -15 0zM1298.79 179.24 a7.5 7.5 0 1 0 15 0 a7.5 7.5 0 1 0 -15 0zM1233.84 216.74 a7.5 7.5 0 1 0 15 0 a7.5 7.5 0 1 0 -15 0zM1168.89 179.24 a7.5 7.5 0 1 0 15 0 a7.5 7.5 0 1 0 -15 0zM1168.89 104.24 a7.5 7.5 0 1 0 15 0 a7.5 7.5 0 1 0 -15 0zM1233.84 441.74 a7.5 7.5 0 1 0 15 0 a7.5 7.5 0 1 0 -15 0zM1233.84 516.74 a7.5 7.5 0 1 0 15 0 a7.5 7.5 0 1 0 -15 0zM1168.89 554.24 a7.5 7.5 0 1 0 15 0 a7.5 7.5 0 1 0 -15 0zM1168.89 629.24 a7.5 7.5 0 1 0 15 0 a7.5 7.5 0 1 0 -15 0zM1233.84 666.74 a7.5 7.5 0 1 0 15 0 a7.5 7.5 0 1 0 -15 0zM1233.84 741.74 a7.5 7.5 0 1 0 15 0 a7.5 7.5 0 1 0 -15 0zM1168.89 779.24 a7.5 7.5 0 1 0 15 0 a7.5 7.5 0 1 0 -15 0zM1298.79 779.24 a7.5 7.5 0 1 0 15 0 a7.5 7.5 0 1 0 -15 0zM1298.79 854.24 a7.5 7.5 0 1 0 15 0 a7.5 7.5 0 1 0 -15 0zM1233.84 891.74 a7.5 7.5 0 1 0 15 0 a7.5 7.5 0 1 0 -15 0zM1168.89 854.24 a7.5 7.5 0 1 0 15 0 a7.5 7.5 0 1 0 -15 0zM1233.84 966.74 a7.5 7.5 0 1 0 15 0 a7.5 7.5 0 1 0 -15 0zM1298.79 1004.24 a7.5 7.5 0 1 0 15 0 a7.5 7.5 0 1 0 -15 0zM1298.79 1079.24 a7.5 7.5 0 1 0 15 0 a7.5 7.5 0 1 0 -15 0zM1233.84 1116.74 a7.5 7.5 0 1 0 15 0 a7.5 7.5 0 1 0 -15 0zM1233.84 1191.74 a7.5 7.5 0 1 0 15 0 a7.5 7.5 0 1 0 -15 0zM1298.79 1229.24 a7.5 7.5 0 1 0 15 0 a7.5 7.5 0 1 0 -15 0zM1298.79 1304.24 a7.5 7.5 0 1 0 15 0 a7.5 7.5 0 1 0 -15 0zM1233.84 1341.74 a7.5 7.5 0 1 0 15 0 a7.5 7.5 0 1 0 -15 0zM1168.89 1304.24 a7.5 7.5 0 1 0 15 0 a7.5 7.5 0 1 0 -15 0zM1168.89 1229.24 a7.5 7.5 0 1 0 15 0 a7.5 7.5 0 1 0 -15 0zM1298.8 404.24 a7.5 7.5 0 1 0 15 0 a7.5 7.5 0 1 0 -15 0zM1363.75 441.74 a7.5 7.5 0 1 0 15 0 a7.5 7.5 0 1 0 -15 0zM1363.75 516.74 a7.5 7.5 0 1 0 15 0 a7.5 7.5 0 1 0 -15 0zM1298.8 554.24 a7.5 7.5 0 1 0 15 0 a7.5 7.5 0 1 0 -15 0zM1298.8 1079.24 a7.5 7.5 0 1 0 15 0 a7.5 7.5 0 1 0 -15 0zM1363.75 1116.74 a7.5 7.5 0 1 0 15 0 a7.5 7.5 0 1 0 -15 0zM1363.75 1191.74 a7.5 7.5 0 1 0 15 0 a7.5 7.5 0 1 0 -15 0zM1298.8 1229.24 a7.5 7.5 0 1 0 15 0 a7.5 7.5 0 1 0 -15 0zM1298.8 1304.24 a7.5 7.5 0 1 0 15 0 a7.5 7.5 0 1 0 -15 0zM1363.75 1341.74 a7.5 7.5 0 1 0 15 0 a7.5 7.5 0 1 0 -15 0zM1363.75 1416.74 a7.5 7.5 0 1 0 15 0 a7.5 7.5 0 1 0 -15 0zM1298.8 1454.24 a7.5 7.5 0 1 0 15 0 a7.5 7.5 0 1 0 -15 0zM1233.84 1416.74 a7.5 7.5 0 1 0 15 0 a7.5 7.5 0 1 0 -15 0zM1428.7 1454.24 a7.5 7.5 0 1 0 15 0 a7.5 7.5 0 1 0 -15 0zM1428.7 1529.24 a7.5 7.5 0 1 0 15 0 a7.5 7.5 0 1 0 -15 0zM1363.75 1566.74 a7.5 7.5 0 1 0 15 0 a7.5 7.5 0 1 0 -15 0zM1298.8 1529.24 a7.5 7.5 0 1 0 15 0 a7.5 7.5 0 1 0 -15 0zM1428.7 -45.76 a7.5 7.5 0 1 0 15 0 a7.5 7.5 0 1 0 -15 0zM1493.66 -8.26 a7.5 7.5 0 1 0 15 0 a7.5 7.5 0 1 0 -15 0zM1493.66 66.74 a7.5 7.5 0 1 0 15 0 a7.5 7.5 0 1 0 -15 0zM1428.7 104.24 a7.5 7.5 0 1 0 15 0 a7.5 7.5 0 1 0 -15 0zM1363.75 66.74 a7.5 7.5 0 1 0 15 0 a7.5 7.5 0 1 0 -15 0zM1363.75 -8.26 a7.5 7.5 0 1 0 15 0 a7.5 7.5 0 1 0 -15 0zM1428.7 404.24 a7.5 7.5 0 1 0 15 0 a7.5 7.5 0 1 0 -15 0zM1493.66 441.74 a7.5 7.5 0 1 0 15 0 a7.5 7.5 0 1 0 -15 0zM1493.66 516.74 a7.5 7.5 0 1 0 15 0 a7.5 7.5 0 1 0 -15 0zM1428.7 554.24 a7.5 7.5 0 1 0 15 0 a7.5 7.5 0 1 0 -15 0zM1558.61 554.24 a7.5 7.5 0 1 0 15 0 a7.5 7.5 0 1 0 -15 0zM1558.61 629.24 a7.5 7.5 0 1 0 15 0 a7.5 7.5 0 1 0 -15 0zM1493.66 666.74 a7.5 7.5 0 1 0 15 0 a7.5 7.5 0 1 0 -15 0zM1428.7 629.24 a7.5 7.5 0 1 0 15 0 a7.5 7.5 0 1 0 -15 0zM1493.66 741.74 a7.5 7.5 0 1 0 15 0 a7.5 7.5 0 1 0 -15 0zM1428.7 779.24 a7.5 7.5 0 1 0 15 0 a7.5 7.5 0 1 0 -15 0zM1363.75 741.74 a7.5 7.5 0 1 0 15 0 a7.5 7.5 0 1 0 -15 0zM1363.75 666.74 a7.5 7.5 0 1 0 15 0 a7.5 7.5 0 1 0 -15 0zM1558.61 779.24 a7.5 7.5 0 1 0 15 0 a7.5 7.5 0 1 0 -15 0zM1558.61 854.24 a7.5 7.5 0 1 0 15 0 a7.5 7.5 0 1 0 -15 0zM1493.66 891.74 a7.5 7.5 0 1 0 15 0 a7.5 7.5 0 1 0 -15 0zM1428.7 854.24 a7.5 7.5 0 1 0 15 0 a7.5 7.5 0 1 0 -15 0zM1493.66 1416.74 a7.5 7.5 0 1 0 15 0 a7.5 7.5 0 1 0 -15 0zM1558.61 1454.24 a7.5 7.5 0 1 0 15 0 a7.5 7.5 0 1 0 -15 0zM1558.61 1529.24 a7.5 7.5 0 1 0 15 0 a7.5 7.5 0 1 0 -15 0zM1493.66 1566.74 a7.5 7.5 0 1 0 15 0 a7.5 7.5 0 1 0 -15 0zM1623.56 516.74 a7.5 7.5 0 1 0 15 0 a7.5 7.5 0 1 0 -15 0zM1688.52 554.24 a7.5 7.5 0 1 0 15 0 a7.5 7.5 0 1 0 -15 0zM1688.52 629.24 a7.5 7.5 0 1 0 15 0 a7.5 7.5 0 1 0 -15 0zM1623.56 666.74 a7.5 7.5 0 1 0 15 0 a7.5 7.5 0 1 0 -15 0zM1623.56 891.74 a7.5 7.5 0 1 0 15 0 a7.5 7.5 0 1 0 -15 0zM1623.56 966.74 a7.5 7.5 0 1 0 15 0 a7.5 7.5 0 1 0 -15 0zM1558.61 1004.24 a7.5 7.5 0 1 0 15 0 a7.5 7.5 0 1 0 -15 0zM1493.66 966.74 a7.5 7.5 0 1 0 15 0 a7.5 7.5 0 1 0 -15 0zM1558.61 1079.24 a7.5 7.5 0 1 0 15 0 a7.5 7.5 0 1 0 -15 0zM1623.56 1116.74 a7.5 7.5 0 1 0 15 0 a7.5 7.5 0 1 0 -15 0zM1623.56 1191.74 a7.5 7.5 0 1 0 15 0 a7.5 7.5 0 1 0 -15 0zM1558.61 1229.24 a7.5 7.5 0 1 0 15 0 a7.5 7.5 0 1 0 -15 0zM1493.66 1191.74 a7.5 7.5 0 1 0 15 0 a7.5 7.5 0 1 0 -15 0zM1493.66 1116.74 a7.5 7.5 0 1 0 15 0 a7.5 7.5 0 1 0 -15 0zM1558.61 1304.24 a7.5 7.5 0 1 0 15 0 a7.5 7.5 0 1 0 -15 0zM1623.56 1341.74 a7.5 7.5 0 1 0 15 0 a7.5 7.5 0 1 0 -15 0zM1623.56 1416.74 a7.5 7.5 0 1 0 15 0 a7.5 7.5 0 1 0 -15 0zM1493.66 1341.74 a7.5 7.5 0 1 0 15 0 a7.5 7.5 0 1 0 -15 0zM1688.52 -45.76 a7.5 7.5 0 1 0 15 0 a7.5 7.5 0 1 0 -15 0zM1753.47 -8.26 a7.5 7.5 0 1 0 15 0 a7.5 7.5 0 1 0 -15 0zM1753.47 66.74 a7.5 7.5 0 1 0 15 0 a7.5 7.5 0 1 0 -15 0zM1688.52 104.24 a7.5 7.5 0 1 0 15 0 a7.5 7.5 0 1 0 -15 0zM1623.56 66.74 a7.5 7.5 0 1 0 15 0 a7.5 7.5 0 1 0 -15 0zM1623.56 -8.26 a7.5 7.5 0 1 0 15 0 a7.5 7.5 0 1 0 -15 0zM1688.52 179.24 a7.5 7.5 0 1 0 15 0 a7.5 7.5 0 1 0 -15 0zM1753.47 216.74 a7.5 7.5 0 1 0 15 0 a7.5 7.5 0 1 0 -15 0zM1753.47 291.74 a7.5 7.5 0 1 0 15 0 a7.5 7.5 0 1 0 -15 0zM1688.52 329.24 a7.5 7.5 0 1 0 15 0 a7.5 7.5 0 1 0 -15 0zM1623.56 291.74 a7.5 7.5 0 1 0 15 0 a7.5 7.5 0 1 0 -15 0zM1623.56 216.74 a7.5 7.5 0 1 0 15 0 a7.5 7.5 0 1 0 -15 0zM1688.52 404.24 a7.5 7.5 0 1 0 15 0 a7.5 7.5 0 1 0 -15 0zM1753.47 441.74 a7.5 7.5 0 1 0 15 0 a7.5 7.5 0 1 0 -15 0zM1753.47 516.74 a7.5 7.5 0 1 0 15 0 a7.5 7.5 0 1 0 -15 0zM1623.56 441.74 a7.5 7.5 0 1 0 15 0 a7.5 7.5 0 1 0 -15 0zM1818.42 554.24 a7.5 7.5 0 1 0 15 0 a7.5 7.5 0 1 0 -15 0zM1818.42 629.24 a7.5 7.5 0 1 0 15 0 a7.5 7.5 0 1 0 -15 0zM1753.47 666.74 a7.5 7.5 0 1 0 15 0 a7.5 7.5 0 1 0 -15 0zM1688.52 1304.24 a7.5 7.5 0 1 0 15 0 a7.5 7.5 0 1 0 -15 0zM1753.47 1341.74 a7.5 7.5 0 1 0 15 0 a7.5 7.5 0 1 0 -15 0zM1753.47 1416.74 a7.5 7.5 0 1 0 15 0 a7.5 7.5 0 1 0 -15 0zM1688.52 1454.24 a7.5 7.5 0 1 0 15 0 a7.5 7.5 0 1 0 -15 0zM1688.52 1529.24 a7.5 7.5 0 1 0 15 0 a7.5 7.5 0 1 0 -15 0zM1753.47 1566.74 a7.5 7.5 0 1 0 15 0 a7.5 7.5 0 1 0 -15 0zM1753.47 1641.74 a7.5 7.5 0 1 0 15 0 a7.5 7.5 0 1 0 -15 0zM1688.52 1679.24 a7.5 7.5 0 1 0 15 0 a7.5 7.5 0 1 0 -15 0zM1623.56 1641.74 a7.5 7.5 0 1 0 15 0 a7.5 7.5 0 1 0 -15 0zM1623.56 1566.74 a7.5 7.5 0 1 0 15 0 a7.5 7.5 0 1 0 -15 0zM1818.42 -45.76 a7.5 7.5 0 1 0 15 0 a7.5 7.5 0 1 0 -15 0zM1883.38 -8.26 a7.5 7.5 0 1 0 15 0 a7.5 7.5 0 1 0 -15 0zM1883.38 66.74 a7.5 7.5 0 1 0 15 0 a7.5 7.5 0 1 0 -15 0zM1818.42 104.24 a7.5 7.5 0 1 0 15 0 a7.5 7.5 0 1 0 -15 0zM1948.33 104.24 a7.5 7.5 0 1 0 15 0 a7.5 7.5 0 1 0 -15 0zM1948.33 179.24 a7.5 7.5 0 1 0 15 0 a7.5 7.5 0 1 0 -15 0zM1883.38 216.74 a7.5 7.5 0 1 0 15 0 a7.5 7.5 0 1 0 -15 0zM1818.42 179.24 a7.5 7.5 0 1 0 15 0 a7.5 7.5 0 1 0 -15 0zM1883.38 291.74 a7.5 7.5 0 1 0 15 0 a7.5 7.5 0 1 0 -15 0zM1818.42 329.24 a7.5 7.5 0 1 0 15 0 a7.5 7.5 0 1 0 -15 0zM1948.33 329.24 a7.5 7.5 0 1 0 15 0 a7.5 7.5 0 1 0 -15 0zM1948.33 404.24 a7.5 7.5 0 1 0 15 0 a7.5 7.5 0 1 0 -15 0zM1883.38 441.74 a7.5 7.5 0 1 0 15 0 a7.5 7.5 0 1 0 -15 0zM1818.42 404.24 a7.5 7.5 0 1 0 15 0 a7.5 7.5 0 1 0 -15 0zM1883.38 516.74 a7.5 7.5 0 1 0 15 0 a7.5 7.5 0 1 0 -15 0zM1948.33 554.24 a7.5 7.5 0 1 0 15 0 a7.5 7.5 0 1 0 -15 0zM1948.33 629.24 a7.5 7.5 0 1 0 15 0 a7.5 7.5 0 1 0 -15 0zM1883.38 666.74 a7.5 7.5 0 1 0 15 0 a7.5 7.5 0 1 0 -15 0zM1818.42 1079.24 a7.5 7.5 0 1 0 15 0 a7.5 7.5 0 1 0 -15 0zM1883.38 1116.74 a7.5 7.5 0 1 0 15 0 a7.5 7.5 0 1 0 -15 0zM1883.38 1191.74 a7.5 7.5 0 1 0 15 0 a7.5 7.5 0 1 0 -15 0zM1818.42 1229.24 a7.5 7.5 0 1 0 15 0 a7.5 7.5 0 1 0 -15 0zM1753.47 1191.74 a7.5 7.5 0 1 0 15 0 a7.5 7.5 0 1 0 -15 0zM1753.47 1116.74 a7.5 7.5 0 1 0 15 0 a7.5 7.5 0 1 0 -15 0zM1818.42 1304.24 a7.5 7.5 0 1 0 15 0 a7.5 7.5 0 1 0 -15 0zM1883.38 1341.74 a7.5 7.5 0 1 0 15 0 a7.5 7.5 0 1 0 -15 0zM1883.38 1416.74 a7.5 7.5 0 1 0 15 0 a7.5 7.5 0 1 0 -15 0zM1818.42 1454.24 a7.5 7.5 0 1 0 15 0 a7.5 7.5 0 1 0 -15 0zM1818.42 1529.24 a7.5 7.5 0 1 0 15 0 a7.5 7.5 0 1 0 -15 0zM1883.38 1566.74 a7.5 7.5 0 1 0 15 0 a7.5 7.5 0 1 0 -15 0zM1883.38 1641.74 a7.5 7.5 0 1 0 15 0 a7.5 7.5 0 1 0 -15 0zM1818.42 1679.24 a7.5 7.5 0 1 0 15 0 a7.5 7.5 0 1 0 -15 0zM1948.33 -45.76 a7.5 7.5 0 1 0 15 0 a7.5 7.5 0 1 0 -15 0zM2013.29 -8.26 a7.5 7.5 0 1 0 15 0 a7.5 7.5 0 1 0 -15 0zM2013.29 66.74 a7.5 7.5 0 1 0 15 0 a7.5 7.5 0 1 0 -15 0zM2013.29 216.74 a7.5 7.5 0 1 0 15 0 a7.5 7.5 0 1 0 -15 0zM2013.29 291.74 a7.5 7.5 0 1 0 15 0 a7.5 7.5 0 1 0 -15 0zM2013.29 666.74 a7.5 7.5 0 1 0 15 0 a7.5 7.5 0 1 0 -15 0zM2013.29 741.74 a7.5 7.5 0 1 0 15 0 a7.5 7.5 0 1 0 -15 0zM1948.33 779.24 a7.5 7.5 0 1 0 15 0 a7.5 7.5 0 1 0 -15 0zM1883.38 741.74 a7.5 7.5 0 1 0 15 0 a7.5 7.5 0 1 0 -15 0zM1948.33 1529.24 a7.5 7.5 0 1 0 15 0 a7.5 7.5 0 1 0 -15 0zM2013.29 1566.74 a7.5 7.5 0 1 0 15 0 a7.5 7.5 0 1 0 -15 0zM2013.29 1641.74 a7.5 7.5 0 1 0 15 0 a7.5 7.5 0 1 0 -15 0zM1948.33 1679.24 a7.5 7.5 0 1 0 15 0 a7.5 7.5 0 1 0 -15 0zM2078.24 179.24 a7.5 7.5 0 1 0 15 0 a7.5 7.5 0 1 0 -15 0zM2143.19 216.74 a7.5 7.5 0 1 0 15 0 a7.5 7.5 0 1 0 -15 0zM2143.19 291.74 a7.5 7.5 0 1 0 15 0 a7.5 7.5 0 1 0 -15 0zM2078.24 329.24 a7.5 7.5 0 1 0 15 0 a7.5 7.5 0 1 0 -15 0zM2143.19 741.74 a7.5 7.5 0 1 0 15 0 a7.5 7.5 0 1 0 -15 0zM2208.15 779.24 a7.5 7.5 0 1 0 15 0 a7.5 7.5 0 1 0 -15 0zM2208.15 854.24 a7.5 7.5 0 1 0 15 0 a7.5 7.5 0 1 0 -15 0zM2143.19 891.74 a7.5 7.5 0 1 0 15 0 a7.5 7.5 0 1 0 -15 0zM2078.24 854.24 a7.5 7.5 0 1 0 15 0 a7.5 7.5 0 1 0 -15 0zM2078.24 779.24 a7.5 7.5 0 1 0 15 0 a7.5 7.5 0 1 0 -15 0zM2143.19 966.74 a7.5 7.5 0 1 0 15 0 a7.5 7.5 0 1 0 -15 0zM2078.24 1004.24 a7.5 7.5 0 1 0 15 0 a7.5 7.5 0 1 0 -15 0zM2013.29 966.74 a7.5 7.5 0 1 0 15 0 a7.5 7.5 0 1 0 -15 0zM2013.29 891.74 a7.5 7.5 0 1 0 15 0 a7.5 7.5 0 1 0 -15 0zM2208.15 1004.24 a7.5 7.5 0 1 0 15 0 a7.5 7.5 0 1 0 -15 0zM2208.15 1079.24 a7.5 7.5 0 1 0 15 0 a7.5 7.5 0 1 0 -15 0zM2143.19 1116.74 a7.5 7.5 0 1 0 15 0 a7.5 7.5 0 1 0 -15 0zM2078.24 1079.24 a7.5 7.5 0 1 0 15 0 a7.5 7.5 0 1 0 -15 0zM2143.19 1416.74 a7.5 7.5 0 1 0 15 0 a7.5 7.5 0 1 0 -15 0zM2208.15 1454.24 a7.5 7.5 0 1 0 15 0 a7.5 7.5 0 1 0 -15 0zM2208.15 1529.24 a7.5 7.5 0 1 0 15 0 a7.5 7.5 0 1 0 -15 0zM2143.19 1566.74 a7.5 7.5 0 1 0 15 0 a7.5 7.5 0 1 0 -15 0zM2078.24 1529.24 a7.5 7.5 0 1 0 15 0 a7.5 7.5 0 1 0 -15 0zM2078.24 1454.24 a7.5 7.5 0 1 0 15 0 a7.5 7.5 0 1 0 -15 0zM2143.19 1641.74 a7.5 7.5 0 1 0 15 0 a7.5 7.5 0 1 0 -15 0zM2078.24 1679.24 a7.5 7.5 0 1 0 15 0 a7.5 7.5 0 1 0 -15 0zM2273.1 66.74 a7.5 7.5 0 1 0 15 0 a7.5 7.5 0 1 0 -15 0zM2338.05 104.24 a7.5 7.5 0 1 0 15 0 a7.5 7.5 0 1 0 -15 0zM2338.05 179.24 a7.5 7.5 0 1 0 15 0 a7.5 7.5 0 1 0 -15 0zM2273.1 216.74 a7.5 7.5 0 1 0 15 0 a7.5 7.5 0 1 0 -15 0zM2208.15 179.24 a7.5 7.5 0 1 0 15 0 a7.5 7.5 0 1 0 -15 0zM2208.15 104.24 a7.5 7.5 0 1 0 15 0 a7.5 7.5 0 1 0 -15 0zM2208.15 1304.24 a7.5 7.5 0 1 0 15 0 a7.5 7.5 0 1 0 -15 0zM2273.1 1341.74 a7.5 7.5 0 1 0 15 0 a7.5 7.5 0 1 0 -15 0zM2273.1 1416.74 a7.5 7.5 0 1 0 15 0 a7.5 7.5 0 1 0 -15 0zM2143.19 1341.74 a7.5 7.5 0 1 0 15 0 a7.5 7.5 0 1 0 -15 0zM2338.05 1454.24 a7.5 7.5 0 1 0 15 0 a7.5 7.5 0 1 0 -15 0zM2338.05 1529.24 a7.5 7.5 0 1 0 15 0 a7.5 7.5 0 1 0 -15 0zM2273.1 1566.74 a7.5 7.5 0 1 0 15 0 a7.5 7.5 0 1 0 -15 0zM2273.1 1641.74 a7.5 7.5 0 1 0 15 0 a7.5 7.5 0 1 0 -15 0zM2208.15 1679.24 a7.5 7.5 0 1 0 15 0 a7.5 7.5 0 1 0 -15 0zM2403.01 66.74 a7.5 7.5 0 1 0 15 0 a7.5 7.5 0 1 0 -15 0zM2467.96 104.24 a7.5 7.5 0 1 0 15 0 a7.5 7.5 0 1 0 -15 0zM2467.96 179.24 a7.5 7.5 0 1 0 15 0 a7.5 7.5 0 1 0 -15 0zM2403.01 216.74 a7.5 7.5 0 1 0 15 0 a7.5 7.5 0 1 0 -15 0zM2338.05 404.24 a7.5 7.5 0 1 0 15 0 a7.5 7.5 0 1 0 -15 0zM2403.01 441.74 a7.5 7.5 0 1 0 15 0 a7.5 7.5 0 1 0 -15 0zM2403.01 516.74 a7.5 7.5 0 1 0 15 0 a7.5 7.5 0 1 0 -15 0zM2338.05 554.24 a7.5 7.5 0 1 0 15 0 a7.5 7.5 0 1 0 -15 0zM2273.1 516.74 a7.5 7.5 0 1 0 15 0 a7.5 7.5 0 1 0 -15 0zM2273.1 441.74 a7.5 7.5 0 1 0 15 0 a7.5 7.5 0 1 0 -15 0zM2338.05 1079.24 a7.5 7.5 0 1 0 15 0 a7.5 7.5 0 1 0 -15 0zM2403.01 1116.74 a7.5 7.5 0 1 0 15 0 a7.5 7.5 0 1 0 -15 0zM2403.01 1191.74 a7.5 7.5 0 1 0 15 0 a7.5 7.5 0 1 0 -15 0zM2338.05 1229.24 a7.5 7.5 0 1 0 15 0 a7.5 7.5 0 1 0 -15 0zM2273.1 1191.74 a7.5 7.5 0 1 0 15 0 a7.5 7.5 0 1 0 -15 0zM2273.1 1116.74 a7.5 7.5 0 1 0 15 0 a7.5 7.5 0 1 0 -15 0zM2467.96 1229.24 a7.5 7.5 0 1 0 15 0 a7.5 7.5 0 1 0 -15 0zM2467.96 1304.24 a7.5 7.5 0 1 0 15 0 a7.5 7.5 0 1 0 -15 0zM2403.01 1341.74 a7.5 7.5 0 1 0 15 0 a7.5 7.5 0 1 0 -15 0zM2338.05 1304.24 a7.5 7.5 0 1 0 15 0 a7.5 7.5 0 1 0 -15 0zM2403.01 1566.74 a7.5 7.5 0 1 0 15 0 a7.5 7.5 0 1 0 -15 0zM2403.01 1641.74 a7.5 7.5 0 1 0 15 0 a7.5 7.5 0 1 0 -15 0zM2338.05 1679.24 a7.5 7.5 0 1 0 15 0 a7.5 7.5 0 1 0 -15 0z" fill="#03305d"></path>
        <path d="M49.19 45.8L92.5 70.8L92.5 120.8L49.19 145.8L5.89 120.8L5.89 70.8zM49.19 195.8L92.5 220.8L92.5 270.8L49.19 295.8L5.89 270.8L5.89 220.8zM49.19 495.8L92.5 520.8L92.5 570.8L49.19 595.8L5.89 570.8L5.89 520.8zM5.89 570.8L49.19 595.8L49.19 645.8L5.89 670.8L-37.41 645.8L-37.41 595.8zM49.19 645.8L92.5 670.8L92.5 720.8L49.19 745.8L5.89 720.8L5.89 670.8zM5.89 870.8L49.19 895.8L49.19 945.8L5.89 970.8L-37.41 945.8L-37.41 895.8zM49.19 945.8L92.5 970.8L92.5 1020.8L49.19 1045.8L5.89 1020.8L5.89 970.8zM5.89 1020.8L49.19 1045.8L49.19 1095.8L5.89 1120.8L-37.41 1095.8L-37.41 1045.8zM5.89 1170.8L49.19 1195.8L49.19 1245.8L5.89 1270.8L-37.41 1245.8L-37.41 1195.8zM5.89 1320.8L49.19 1345.8L49.19 1395.8L5.89 1420.8L-37.41 1395.8L-37.41 1345.8zM49.19 1395.8L92.5 1420.8L92.5 1470.8L49.19 1495.8L5.89 1470.8L5.89 1420.8zM5.89 1470.8L49.19 1495.8L49.19 1545.8L5.89 1570.8L-37.41 1545.8L-37.41 1495.8zM135.8 45.8L179.1 70.8L179.1 120.8L135.8 145.8L92.5 120.8L92.5 70.8zM92.5 120.8L135.8 145.8L135.8 195.8L92.5 220.8L49.19 195.8L49.19 145.8zM92.5 270.8L135.8 295.8L135.8 345.8L92.5 370.8L49.19 345.8L49.19 295.8zM135.8 945.8L179.1 970.8L179.1 1020.8L135.8 1045.8L92.5 1020.8L92.5 970.8zM92.5 1020.8L135.8 1045.8L135.8 1095.8L92.5 1120.8L49.19 1095.8L49.19 1045.8zM135.8 1095.8L179.1 1120.8L179.1 1170.8L135.8 1195.8L92.5 1170.8L92.5 1120.8zM92.5 1170.8L135.8 1195.8L135.8 1245.8L92.5 1270.8L49.19 1245.8L49.19 1195.8zM135.8 1395.8L179.1 1420.8L179.1 1470.8L135.8 1495.8L92.5 1470.8L92.5 1420.8zM92.5 1470.8L135.8 1495.8L135.8 1545.8L92.5 1570.8L49.19 1545.8L49.19 1495.8zM135.8 1545.8L179.1 1570.8L179.1 1620.8L135.8 1645.8L92.5 1620.8L92.5 1570.8zM179.1 -29.2L222.4 -4.2L222.4 45.8L179.1 70.8L135.8 45.8L135.8 -4.2zM179.1 120.8L222.4 145.8L222.4 195.8L179.1 220.8L135.8 195.8L135.8 145.8zM222.4 195.8L265.7 220.8L265.7 270.8L222.4 295.8L179.1 270.8L179.1 220.8zM179.1 270.8L222.4 295.8L222.4 345.8L179.1 370.8L135.8 345.8L135.8 295.8zM179.1 720.8L222.4 745.8L222.4 795.8L179.1 820.8L135.8 795.8L135.8 745.8zM222.4 795.8L265.7 820.8L265.7 870.8L222.4 895.8L179.1 870.8L179.1 820.8zM179.1 1020.8L222.4 1045.8L222.4 1095.8L179.1 1120.8L135.8 1095.8L135.8 1045.8zM222.4 1095.8L265.7 1120.8L265.7 1170.8L222.4 1195.8L179.1 1170.8L179.1 1120.8zM265.7 -29.2L309.01 -4.2L309.01 45.8L265.7 70.8L222.4 45.8L222.4 -4.2zM309.01 45.8L352.31 70.8L352.31 120.8L309.01 145.8L265.7 120.8L265.7 70.8zM309.01 345.8L352.31 370.8L352.31 420.8L309.01 445.8L265.7 420.8L265.7 370.8zM265.7 420.8L309.01 445.8L309.01 495.8L265.7 520.8L222.4 495.8L222.4 445.8zM309.01 495.8L352.31 520.8L352.31 570.8L309.01 595.8L265.7 570.8L265.7 520.8zM265.7 570.8L309.01 595.8L309.01 645.8L265.7 670.8L222.4 645.8L222.4 595.8zM309.01 795.8L352.31 820.8L352.31 870.8L309.01 895.8L265.7 870.8L265.7 820.8zM309.01 1245.8L352.31 1270.8L352.31 1320.8L309.01 1345.8L265.7 1320.8L265.7 1270.8zM265.7 1470.8L309.01 1495.8L309.01 1545.8L265.7 1570.8L222.4 1545.8L222.4 1495.8zM309.01 1545.8L352.31 1570.8L352.31 1620.8L309.01 1645.8L265.7 1620.8L265.7 1570.8zM395.61 495.8L438.92 520.8L438.92 570.8L395.61 595.8L352.31 570.8L352.31 520.8zM395.61 645.8L438.92 670.8L438.92 720.8L395.61 745.8L352.31 720.8L352.31 670.8zM352.31 720.8L395.61 745.8L395.61 795.8L352.31 820.8L309.01 795.8L309.01 745.8zM352.31 870.8L395.61 895.8L395.61 945.8L352.31 970.8L309.01 945.8L309.01 895.8zM352.31 1020.8L395.61 1045.8L395.61 1095.8L352.31 1120.8L309.01 1095.8L309.01 1045.8zM352.31 1320.8L395.61 1345.8L395.61 1395.8L352.31 1420.8L309.01 1395.8L309.01 1345.8zM352.31 1470.8L395.61 1495.8L395.61 1545.8L352.31 1570.8L309.01 1545.8L309.01 1495.8zM395.61 1545.8L438.92 1570.8L438.92 1620.8L395.61 1645.8L352.31 1620.8L352.31 1570.8zM482.22 45.8L525.52 70.8L525.52 120.8L482.22 145.8L438.92 120.8L438.92 70.8zM438.92 270.8L482.22 295.8L482.22 345.8L438.92 370.8L395.61 345.8L395.61 295.8zM438.92 570.8L482.22 595.8L482.22 645.8L438.92 670.8L395.61 645.8L395.61 595.8zM438.92 720.8L482.22 745.8L482.22 795.8L438.92 820.8L395.61 795.8L395.61 745.8zM482.22 795.8L525.52 820.8L525.52 870.8L482.22 895.8L438.92 870.8L438.92 820.8zM482.22 1095.8L525.52 1120.8L525.52 1170.8L482.22 1195.8L438.92 1170.8L438.92 1120.8zM438.92 1170.8L482.22 1195.8L482.22 1245.8L438.92 1270.8L395.61 1245.8L395.61 1195.8zM438.92 1320.8L482.22 1345.8L482.22 1395.8L438.92 1420.8L395.61 1395.8L395.61 1345.8zM482.22 1545.8L525.52 1570.8L525.52 1620.8L482.22 1645.8L438.92 1620.8L438.92 1570.8zM525.52 120.8L568.82 145.8L568.82 195.8L525.52 220.8L482.22 195.8L482.22 145.8zM568.82 345.8L612.13 370.8L612.13 420.8L568.82 445.8L525.52 420.8L525.52 370.8zM568.82 495.8L612.13 520.8L612.13 570.8L568.82 595.8L525.52 570.8L525.52 520.8zM525.52 570.8L568.82 595.8L568.82 645.8L525.52 670.8L482.22 645.8L482.22 595.8zM525.52 720.8L568.82 745.8L568.82 795.8L525.52 820.8L482.22 795.8L482.22 745.8zM568.82 1095.8L612.13 1120.8L612.13 1170.8L568.82 1195.8L525.52 1170.8L525.52 1120.8zM568.82 1395.8L612.13 1420.8L612.13 1470.8L568.82 1495.8L525.52 1470.8L525.52 1420.8zM568.82 1545.8L612.13 1570.8L612.13 1620.8L568.82 1645.8L525.52 1620.8L525.52 1570.8zM612.13 120.8L655.43 145.8L655.43 195.8L612.13 220.8L568.82 195.8L568.82 145.8zM655.43 195.8L698.73 220.8L698.73 270.8L655.43 295.8L612.13 270.8L612.13 220.8zM655.43 495.8L698.73 520.8L698.73 570.8L655.43 595.8L612.13 570.8L612.13 520.8zM655.43 645.8L698.73 670.8L698.73 720.8L655.43 745.8L612.13 720.8L612.13 670.8zM612.13 720.8L655.43 745.8L655.43 795.8L612.13 820.8L568.82 795.8L568.82 745.8zM655.43 795.8L698.73 820.8L698.73 870.8L655.43 895.8L612.13 870.8L612.13 820.8zM612.13 1320.8L655.43 1345.8L655.43 1395.8L612.13 1420.8L568.82 1395.8L568.82 1345.8zM612.13 1470.8L655.43 1495.8L655.43 1545.8L612.13 1570.8L568.82 1545.8L568.82 1495.8zM698.73 270.8L742.03 295.8L742.03 345.8L698.73 370.8L655.43 345.8L655.43 295.8zM698.73 420.8L742.03 445.8L742.03 495.8L698.73 520.8L655.43 495.8L655.43 445.8zM698.73 570.8L742.03 595.8L742.03 645.8L698.73 670.8L655.43 645.8L655.43 595.8zM698.73 720.8L742.03 745.8L742.03 795.8L698.73 820.8L655.43 795.8L655.43 745.8zM742.03 795.8L785.34 820.8L785.34 870.8L742.03 895.8L698.73 870.8L698.73 820.8zM742.03 945.8L785.34 970.8L785.34 1020.8L742.03 1045.8L698.73 1020.8L698.73 970.8zM698.73 1020.8L742.03 1045.8L742.03 1095.8L698.73 1120.8L655.43 1095.8L655.43 1045.8zM742.03 1095.8L785.34 1120.8L785.34 1170.8L742.03 1195.8L698.73 1170.8L698.73 1120.8zM698.73 1170.8L742.03 1195.8L742.03 1245.8L698.73 1270.8L655.43 1245.8L655.43 1195.8zM742.03 1245.8L785.34 1270.8L785.34 1320.8L742.03 1345.8L698.73 1320.8L698.73 1270.8zM698.73 1470.8L742.03 1495.8L742.03 1545.8L698.73 1570.8L655.43 1545.8L655.43 1495.8zM785.34 120.8L828.64 145.8L828.64 195.8L785.34 220.8L742.03 195.8L742.03 145.8zM828.64 345.8L871.94 370.8L871.94 420.8L828.64 445.8L785.34 420.8L785.34 370.8zM785.34 420.8L828.64 445.8L828.64 495.8L785.34 520.8L742.03 495.8L742.03 445.8zM828.64 795.8L871.94 820.8L871.94 870.8L828.64 895.8L785.34 870.8L785.34 820.8zM785.34 870.8L828.64 895.8L828.64 945.8L785.34 970.8L742.03 945.8L742.03 895.8zM785.34 1020.8L828.64 1045.8L828.64 1095.8L785.34 1120.8L742.03 1095.8L742.03 1045.8zM785.34 1170.8L828.64 1195.8L828.64 1245.8L785.34 1270.8L742.03 1245.8L742.03 1195.8zM828.64 1395.8L871.94 1420.8L871.94 1470.8L828.64 1495.8L785.34 1470.8L785.34 1420.8zM915.24 45.8L958.55 70.8L958.55 120.8L915.24 145.8L871.94 120.8L871.94 70.8zM871.94 120.8L915.24 145.8L915.24 195.8L871.94 220.8L828.64 195.8L828.64 145.8zM871.94 270.8L915.24 295.8L915.24 345.8L871.94 370.8L828.64 345.8L828.64 295.8zM871.94 420.8L915.24 445.8L915.24 495.8L871.94 520.8L828.64 495.8L828.64 445.8zM915.24 495.8L958.55 520.8L958.55 570.8L915.24 595.8L871.94 570.8L871.94 520.8zM871.94 570.8L915.24 595.8L915.24 645.8L871.94 670.8L828.64 645.8L828.64 595.8zM871.94 870.8L915.24 895.8L915.24 945.8L871.94 970.8L828.64 945.8L828.64 895.8zM915.24 945.8L958.55 970.8L958.55 1020.8L915.24 1045.8L871.94 1020.8L871.94 970.8zM915.24 1095.8L958.55 1120.8L958.55 1170.8L915.24 1195.8L871.94 1170.8L871.94 1120.8zM871.94 1320.8L915.24 1345.8L915.24 1395.8L871.94 1420.8L828.64 1395.8L828.64 1345.8zM958.55 -29.2L1001.85 -4.2L1001.85 45.8L958.55 70.8L915.24 45.8L915.24 -4.2zM958.55 120.8L1001.85 145.8L1001.85 195.8L958.55 220.8L915.24 195.8L915.24 145.8zM1001.85 345.8L1045.15 370.8L1045.15 420.8L1001.85 445.8L958.55 420.8L958.55 370.8zM958.55 420.8L1001.85 445.8L1001.85 495.8L958.55 520.8L915.24 495.8L915.24 445.8zM958.55 570.8L1001.85 595.8L1001.85 645.8L958.55 670.8L915.24 645.8L915.24 595.8zM958.55 1170.8L1001.85 1195.8L1001.85 1245.8L958.55 1270.8L915.24 1245.8L915.24 1195.8zM958.55 1320.8L1001.85 1345.8L1001.85 1395.8L958.55 1420.8L915.24 1395.8L915.24 1345.8zM1001.85 1395.8L1045.15 1420.8L1045.15 1470.8L1001.85 1495.8L958.55 1470.8L958.55 1420.8zM1001.85 1545.8L1045.15 1570.8L1045.15 1620.8L1001.85 1645.8L958.55 1620.8L958.55 1570.8zM1088.45 195.8L1131.76 220.8L1131.76 270.8L1088.45 295.8L1045.15 270.8L1045.15 220.8zM1045.15 270.8L1088.45 295.8L1088.45 345.8L1045.15 370.8L1001.85 345.8L1001.85 295.8zM1088.45 345.8L1131.76 370.8L1131.76 420.8L1088.45 445.8L1045.15 420.8L1045.15 370.8zM1045.15 420.8L1088.45 445.8L1088.45 495.8L1045.15 520.8L1001.85 495.8L1001.85 445.8zM1088.45 495.8L1131.76 520.8L1131.76 570.8L1088.45 595.8L1045.15 570.8L1045.15 520.8zM1045.15 870.8L1088.45 895.8L1088.45 945.8L1045.15 970.8L1001.85 945.8L1001.85 895.8zM1088.45 1095.8L1131.76 1120.8L1131.76 1170.8L1088.45 1195.8L1045.15 1170.8L1045.15 1120.8zM1088.45 1245.8L1131.76 1270.8L1131.76 1320.8L1088.45 1345.8L1045.15 1320.8L1045.15 1270.8zM1045.15 1470.8L1088.45 1495.8L1088.45 1545.8L1045.15 1570.8L1001.85 1545.8L1001.85 1495.8zM1175.06 45.8L1218.36 70.8L1218.36 120.8L1175.06 145.8L1131.76 120.8L1131.76 70.8zM1131.76 120.8L1175.06 145.8L1175.06 195.8L1131.76 220.8L1088.45 195.8L1088.45 145.8zM1175.06 195.8L1218.36 220.8L1218.36 270.8L1175.06 295.8L1131.76 270.8L1131.76 220.8zM1175.06 345.8L1218.36 370.8L1218.36 420.8L1175.06 445.8L1131.76 420.8L1131.76 370.8zM1175.06 645.8L1218.36 670.8L1218.36 720.8L1175.06 745.8L1131.76 720.8L1131.76 670.8zM1175.06 945.8L1218.36 970.8L1218.36 1020.8L1175.06 1045.8L1131.76 1020.8L1131.76 970.8zM1131.76 1470.8L1175.06 1495.8L1175.06 1545.8L1131.76 1570.8L1088.45 1545.8L1088.45 1495.8zM1261.66 45.8L1304.97 70.8L1304.97 120.8L1261.66 145.8L1218.36 120.8L1218.36 70.8zM1218.36 120.8L1261.66 145.8L1261.66 195.8L1218.36 220.8L1175.06 195.8L1175.06 145.8zM1261.66 345.8L1304.97 370.8L1304.97 420.8L1261.66 445.8L1218.36 420.8L1218.36 370.8zM1218.36 420.8L1261.66 445.8L1261.66 495.8L1218.36 520.8L1175.06 495.8L1175.06 445.8zM1261.66 495.8L1304.97 520.8L1304.97 570.8L1261.66 595.8L1218.36 570.8L1218.36 520.8zM1261.66 645.8L1304.97 670.8L1304.97 720.8L1261.66 745.8L1218.36 720.8L1218.36 670.8zM1218.36 720.8L1261.66 745.8L1261.66 795.8L1218.36 820.8L1175.06 795.8L1175.06 745.8zM1261.66 945.8L1304.97 970.8L1304.97 1020.8L1261.66 1045.8L1218.36 1020.8L1218.36 970.8zM1218.36 1320.8L1261.66 1345.8L1261.66 1395.8L1218.36 1420.8L1175.06 1395.8L1175.06 1345.8zM1261.66 1545.8L1304.97 1570.8L1304.97 1620.8L1261.66 1645.8L1218.36 1620.8L1218.36 1570.8zM1348.27 45.8L1391.57 70.8L1391.57 120.8L1348.27 145.8L1304.97 120.8L1304.97 70.8zM1304.97 270.8L1348.27 295.8L1348.27 345.8L1304.97 370.8L1261.66 345.8L1261.66 295.8zM1304.97 420.8L1348.27 445.8L1348.27 495.8L1304.97 520.8L1261.66 495.8L1261.66 445.8zM1348.27 495.8L1391.57 520.8L1391.57 570.8L1348.27 595.8L1304.97 570.8L1304.97 520.8zM1304.97 570.8L1348.27 595.8L1348.27 645.8L1304.97 670.8L1261.66 645.8L1261.66 595.8zM1348.27 645.8L1391.57 670.8L1391.57 720.8L1348.27 745.8L1304.97 720.8L1304.97 670.8zM1304.97 720.8L1348.27 745.8L1348.27 795.8L1304.97 820.8L1261.66 795.8L1261.66 745.8zM1348.27 1095.8L1391.57 1120.8L1391.57 1170.8L1348.27 1195.8L1304.97 1170.8L1304.97 1120.8zM1348.27 1245.8L1391.57 1270.8L1391.57 1320.8L1348.27 1345.8L1304.97 1320.8L1304.97 1270.8zM1348.27 1395.8L1391.57 1420.8L1391.57 1470.8L1348.27 1495.8L1304.97 1470.8L1304.97 1420.8zM1434.87 45.8L1478.18 70.8L1478.18 120.8L1434.87 145.8L1391.57 120.8L1391.57 70.8zM1391.57 420.8L1434.87 445.8L1434.87 495.8L1391.57 520.8L1348.27 495.8L1348.27 445.8zM1391.57 570.8L1434.87 595.8L1434.87 645.8L1391.57 670.8L1348.27 645.8L1348.27 595.8zM1434.87 795.8L1478.18 820.8L1478.18 870.8L1434.87 895.8L1391.57 870.8L1391.57 820.8zM1434.87 1095.8L1478.18 1120.8L1478.18 1170.8L1434.87 1195.8L1391.57 1170.8L1391.57 1120.8zM1434.87 1245.8L1478.18 1270.8L1478.18 1320.8L1434.87 1345.8L1391.57 1320.8L1391.57 1270.8zM1391.57 1470.8L1434.87 1495.8L1434.87 1545.8L1391.57 1570.8L1348.27 1545.8L1348.27 1495.8zM1521.48 345.8L1564.78 370.8L1564.78 420.8L1521.48 445.8L1478.18 420.8L1478.18 370.8zM1521.48 1395.8L1564.78 1420.8L1564.78 1470.8L1521.48 1495.8L1478.18 1470.8L1478.18 1420.8zM1478.18 1470.8L1521.48 1495.8L1521.48 1545.8L1478.18 1570.8L1434.87 1545.8L1434.87 1495.8zM1564.78 420.8L1608.08 445.8L1608.08 495.8L1564.78 520.8L1521.48 495.8L1521.48 445.8zM1608.08 495.8L1651.39 520.8L1651.39 570.8L1608.08 595.8L1564.78 570.8L1564.78 520.8zM1564.78 570.8L1608.08 595.8L1608.08 645.8L1564.78 670.8L1521.48 645.8L1521.48 595.8zM1608.08 645.8L1651.39 670.8L1651.39 720.8L1608.08 745.8L1564.78 720.8L1564.78 670.8zM1608.08 795.8L1651.39 820.8L1651.39 870.8L1608.08 895.8L1564.78 870.8L1564.78 820.8zM1564.78 870.8L1608.08 895.8L1608.08 945.8L1564.78 970.8L1521.48 945.8L1521.48 895.8zM1608.08 1095.8L1651.39 1120.8L1651.39 1170.8L1608.08 1195.8L1564.78 1170.8L1564.78 1120.8zM1608.08 1245.8L1651.39 1270.8L1651.39 1320.8L1608.08 1345.8L1564.78 1320.8L1564.78 1270.8zM1564.78 1320.8L1608.08 1345.8L1608.08 1395.8L1564.78 1420.8L1521.48 1395.8L1521.48 1345.8zM1651.39 120.8L1694.69 145.8L1694.69 195.8L1651.39 220.8L1608.08 195.8L1608.08 145.8zM1651.39 270.8L1694.69 295.8L1694.69 345.8L1651.39 370.8L1608.08 345.8L1608.08 295.8zM1694.69 645.8L1737.99 670.8L1737.99 720.8L1694.69 745.8L1651.39 720.8L1651.39 670.8zM1651.39 870.8L1694.69 895.8L1694.69 945.8L1651.39 970.8L1608.08 945.8L1608.08 895.8zM1651.39 1020.8L1694.69 1045.8L1694.69 1095.8L1651.39 1120.8L1608.08 1095.8L1608.08 1045.8zM1651.39 1170.8L1694.69 1195.8L1694.69 1245.8L1651.39 1270.8L1608.08 1245.8L1608.08 1195.8zM1651.39 1470.8L1694.69 1495.8L1694.69 1545.8L1651.39 1570.8L1608.08 1545.8L1608.08 1495.8zM1694.69 1545.8L1737.99 1570.8L1737.99 1620.8L1694.69 1645.8L1651.39 1620.8L1651.39 1570.8zM1737.99 -29.2L1781.29 -4.2L1781.29 45.8L1737.99 70.8L1694.69 45.8L1694.69 -4.2zM1781.29 45.8L1824.6 70.8L1824.6 120.8L1781.29 145.8L1737.99 120.8L1737.99 70.8zM1737.99 120.8L1781.29 145.8L1781.29 195.8L1737.99 220.8L1694.69 195.8L1694.69 145.8zM1781.29 195.8L1824.6 220.8L1824.6 270.8L1781.29 295.8L1737.99 270.8L1737.99 220.8zM1737.99 720.8L1781.29 745.8L1781.29 795.8L1737.99 820.8L1694.69 795.8L1694.69 745.8zM1781.29 795.8L1824.6 820.8L1824.6 870.8L1781.29 895.8L1737.99 870.8L1737.99 820.8zM1781.29 945.8L1824.6 970.8L1824.6 1020.8L1781.29 1045.8L1737.99 1020.8L1737.99 970.8zM1737.99 1020.8L1781.29 1045.8L1781.29 1095.8L1737.99 1120.8L1694.69 1095.8L1694.69 1045.8zM1781.29 1245.8L1824.6 1270.8L1824.6 1320.8L1781.29 1345.8L1737.99 1320.8L1737.99 1270.8zM1781.29 1395.8L1824.6 1420.8L1824.6 1470.8L1781.29 1495.8L1737.99 1470.8L1737.99 1420.8zM1737.99 1470.8L1781.29 1495.8L1781.29 1545.8L1737.99 1570.8L1694.69 1545.8L1694.69 1495.8zM1867.9 45.8L1911.2 70.8L1911.2 120.8L1867.9 145.8L1824.6 120.8L1824.6 70.8zM1824.6 270.8L1867.9 295.8L1867.9 345.8L1824.6 370.8L1781.29 345.8L1781.29 295.8zM1824.6 420.8L1867.9 445.8L1867.9 495.8L1824.6 520.8L1781.29 495.8L1781.29 445.8zM1824.6 570.8L1867.9 595.8L1867.9 645.8L1824.6 670.8L1781.29 645.8L1781.29 595.8zM1867.9 645.8L1911.2 670.8L1911.2 720.8L1867.9 745.8L1824.6 720.8L1824.6 670.8zM1824.6 870.8L1867.9 895.8L1867.9 945.8L1824.6 970.8L1781.29 945.8L1781.29 895.8zM1867.9 945.8L1911.2 970.8L1911.2 1020.8L1867.9 1045.8L1824.6 1020.8L1824.6 970.8zM1867.9 1095.8L1911.2 1120.8L1911.2 1170.8L1867.9 1195.8L1824.6 1170.8L1824.6 1120.8zM1867.9 1245.8L1911.2 1270.8L1911.2 1320.8L1867.9 1345.8L1824.6 1320.8L1824.6 1270.8zM1824.6 1320.8L1867.9 1345.8L1867.9 1395.8L1824.6 1420.8L1781.29 1395.8L1781.29 1345.8zM1867.9 1545.8L1911.2 1570.8L1911.2 1620.8L1867.9 1645.8L1824.6 1620.8L1824.6 1570.8zM1954.5 195.8L1997.81 220.8L1997.81 270.8L1954.5 295.8L1911.2 270.8L1911.2 220.8zM1954.5 345.8L1997.81 370.8L1997.81 420.8L1954.5 445.8L1911.2 420.8L1911.2 370.8zM1954.5 495.8L1997.81 520.8L1997.81 570.8L1954.5 595.8L1911.2 570.8L1911.2 520.8zM1954.5 795.8L1997.81 820.8L1997.81 870.8L1954.5 895.8L1911.2 870.8L1911.2 820.8zM1911.2 1020.8L1954.5 1045.8L1954.5 1095.8L1911.2 1120.8L1867.9 1095.8L1867.9 1045.8zM1954.5 1245.8L1997.81 1270.8L1997.81 1320.8L1954.5 1345.8L1911.2 1320.8L1911.2 1270.8zM1954.5 1395.8L1997.81 1420.8L1997.81 1470.8L1954.5 1495.8L1911.2 1470.8L1911.2 1420.8zM1954.5 1545.8L1997.81 1570.8L1997.81 1620.8L1954.5 1645.8L1911.2 1620.8L1911.2 1570.8zM1997.81 420.8L2041.11 445.8L2041.11 495.8L1997.81 520.8L1954.5 495.8L1954.5 445.8zM1997.81 720.8L2041.11 745.8L2041.11 795.8L1997.81 820.8L1954.5 795.8L1954.5 745.8zM2041.11 795.8L2084.41 820.8L2084.41 870.8L2041.11 895.8L1997.81 870.8L1997.81 820.8zM1997.81 1020.8L2041.11 1045.8L2041.11 1095.8L1997.81 1120.8L1954.5 1095.8L1954.5 1045.8zM2041.11 1095.8L2084.41 1120.8L2084.41 1170.8L2041.11 1195.8L1997.81 1170.8L1997.81 1120.8zM1997.81 1170.8L2041.11 1195.8L2041.11 1245.8L1997.81 1270.8L1954.5 1245.8L1954.5 1195.8zM1997.81 1470.8L2041.11 1495.8L2041.11 1545.8L1997.81 1570.8L1954.5 1545.8L1954.5 1495.8zM2084.41 -29.2L2127.71 -4.2L2127.71 45.8L2084.41 70.8L2041.11 45.8L2041.11 -4.2zM2127.71 45.8L2171.01 70.8L2171.01 120.8L2127.71 145.8L2084.41 120.8L2084.41 70.8zM2127.71 195.8L2171.01 220.8L2171.01 270.8L2127.71 295.8L2084.41 270.8L2084.41 220.8zM2084.41 270.8L2127.71 295.8L2127.71 345.8L2084.41 370.8L2041.11 345.8L2041.11 295.8zM2127.71 345.8L2171.01 370.8L2171.01 420.8L2127.71 445.8L2084.41 420.8L2084.41 370.8zM2127.71 495.8L2171.01 520.8L2171.01 570.8L2127.71 595.8L2084.41 570.8L2084.41 520.8zM2127.71 795.8L2171.01 820.8L2171.01 870.8L2127.71 895.8L2084.41 870.8L2084.41 820.8zM2084.41 870.8L2127.71 895.8L2127.71 945.8L2084.41 970.8L2041.11 945.8L2041.11 895.8zM2084.41 1020.8L2127.71 1045.8L2127.71 1095.8L2084.41 1120.8L2041.11 1095.8L2041.11 1045.8zM2127.71 1095.8L2171.01 1120.8L2171.01 1170.8L2127.71 1195.8L2084.41 1170.8L2084.41 1120.8zM2171.01 -29.2L2214.32 -4.2L2214.32 45.8L2171.01 70.8L2127.71 45.8L2127.71 -4.2zM2171.01 120.8L2214.32 145.8L2214.32 195.8L2171.01 220.8L2127.71 195.8L2127.71 145.8zM2214.32 195.8L2257.62 220.8L2257.62 270.8L2214.32 295.8L2171.01 270.8L2171.01 220.8zM2171.01 270.8L2214.32 295.8L2214.32 345.8L2171.01 370.8L2127.71 345.8L2127.71 295.8zM2171.01 720.8L2214.32 745.8L2214.32 795.8L2171.01 820.8L2127.71 795.8L2127.71 745.8zM2214.32 795.8L2257.62 820.8L2257.62 870.8L2214.32 895.8L2171.01 870.8L2171.01 820.8zM2171.01 1170.8L2214.32 1195.8L2214.32 1245.8L2171.01 1270.8L2127.71 1245.8L2127.71 1195.8zM2214.32 1245.8L2257.62 1270.8L2257.62 1320.8L2214.32 1345.8L2171.01 1320.8L2171.01 1270.8zM2171.01 1320.8L2214.32 1345.8L2214.32 1395.8L2171.01 1420.8L2127.71 1395.8L2127.71 1345.8zM2214.32 1395.8L2257.62 1420.8L2257.62 1470.8L2214.32 1495.8L2171.01 1470.8L2171.01 1420.8zM2257.62 -29.2L2300.92 -4.2L2300.92 45.8L2257.62 70.8L2214.32 45.8L2214.32 -4.2zM2300.92 45.8L2344.22 70.8L2344.22 120.8L2300.92 145.8L2257.62 120.8L2257.62 70.8zM2257.62 120.8L2300.92 145.8L2300.92 195.8L2257.62 220.8L2214.32 195.8L2214.32 145.8zM2300.92 195.8L2344.22 220.8L2344.22 270.8L2300.92 295.8L2257.62 270.8L2257.62 220.8zM2257.62 270.8L2300.92 295.8L2300.92 345.8L2257.62 370.8L2214.32 345.8L2214.32 295.8zM2257.62 570.8L2300.92 595.8L2300.92 645.8L2257.62 670.8L2214.32 645.8L2214.32 595.8zM2300.92 795.8L2344.22 820.8L2344.22 870.8L2300.92 895.8L2257.62 870.8L2257.62 820.8zM2300.92 945.8L2344.22 970.8L2344.22 1020.8L2300.92 1045.8L2257.62 1020.8L2257.62 970.8zM2300.92 1095.8L2344.22 1120.8L2344.22 1170.8L2300.92 1195.8L2257.62 1170.8L2257.62 1120.8zM2257.62 1470.8L2300.92 1495.8L2300.92 1545.8L2257.62 1570.8L2214.32 1545.8L2214.32 1495.8zM2300.92 1545.8L2344.22 1570.8L2344.22 1620.8L2300.92 1645.8L2257.62 1620.8L2257.62 1570.8zM2344.22 120.8L2387.53 145.8L2387.53 195.8L2344.22 220.8L2300.92 195.8L2300.92 145.8zM2387.53 195.8L2430.83 220.8L2430.83 270.8L2387.53 295.8L2344.22 270.8L2344.22 220.8zM2387.53 345.8L2430.83 370.8L2430.83 420.8L2387.53 445.8L2344.22 420.8L2344.22 370.8zM2387.53 795.8L2430.83 820.8L2430.83 870.8L2387.53 895.8L2344.22 870.8L2344.22 820.8zM2344.22 870.8L2387.53 895.8L2387.53 945.8L2344.22 970.8L2300.92 945.8L2300.92 895.8zM2387.53 945.8L2430.83 970.8L2430.83 1020.8L2387.53 1045.8L2344.22 1020.8L2344.22 970.8zM2344.22 1020.8L2387.53 1045.8L2387.53 1095.8L2344.22 1120.8L2300.92 1095.8L2300.92 1045.8zM2430.83 -29.2L2474.13 -4.2L2474.13 45.8L2430.83 70.8L2387.53 45.8L2387.53 -4.2zM2430.83 120.8L2474.13 145.8L2474.13 195.8L2430.83 220.8L2387.53 195.8L2387.53 145.8zM2474.13 195.8L2517.43 220.8L2517.43 270.8L2474.13 295.8L2430.83 270.8L2430.83 220.8zM2474.13 495.8L2517.43 520.8L2517.43 570.8L2474.13 595.8L2430.83 570.8L2430.83 520.8zM2430.83 570.8L2474.13 595.8L2474.13 645.8L2430.83 670.8L2387.53 645.8L2387.53 595.8zM2474.13 645.8L2517.43 670.8L2517.43 720.8L2474.13 745.8L2430.83 720.8L2430.83 670.8zM2430.83 720.8L2474.13 745.8L2474.13 795.8L2430.83 820.8L2387.53 795.8L2387.53 745.8zM2474.13 945.8L2517.43 970.8L2517.43 1020.8L2474.13 1045.8L2430.83 1020.8L2430.83 970.8zM2430.83 1020.8L2474.13 1045.8L2474.13 1095.8L2430.83 1120.8L2387.53 1095.8L2387.53 1045.8zM2474.13 1095.8L2517.43 1120.8L2517.43 1170.8L2474.13 1195.8L2430.83 1170.8L2430.83 1120.8zM2430.83 1170.8L2474.13 1195.8L2474.13 1245.8L2430.83 1270.8L2387.53 1245.8L2387.53 1195.8z" stroke="rgba(6, 80, 156, 0.93)" stroke-width="2"></path>
    </g>
    <defs>
        <mask id="SvgjsMask1009">
            <rect width="2460" height="1600" fill="#ffffff"></rect>
        </mask>
    </defs>
</svg>