<svg xmlns="http://www.w3.org/2000/svg" version="1.1" xmlns:xlink="http://www.w3.org/1999/xlink" xmlns:svgjs="http://svgjs.dev/svgjs" width="2460" height="1600" preserveAspectRatio="none" viewBox="0 0 2460 1600">
    <g mask="url(&quot;#SvgjsMask1376&quot;)" fill="none">
        <rect width="2460" height="1600" x="0" y="0" fill="url(&quot;#SvgjsLinearGradient1377&quot;)"></rect>
        <path d="M123.52 82.73L188.48 120.23L188.48 195.23L123.52 232.73L58.57 195.23L58.57 120.23zM58.57 645.23L123.52 682.73L123.52 757.73L58.57 795.23L-6.38 757.73L-6.38 682.73zM123.52 982.73L188.48 1020.23L188.48 1095.23L123.52 1132.73L58.57 1095.23L58.57 1020.23zM58.57 1095.23L123.52 1132.73L123.52 1207.73L58.57 1245.23L-6.38 1207.73L-6.38 1132.73zM58.57 1320.23L123.52 1357.73L123.52 1432.73L58.57 1470.23L-6.38 1432.73L-6.38 1357.73zM188.48 -29.77L253.43 7.73L253.43 82.73L188.48 120.23L123.52 82.73L123.52 7.73zM253.43 307.73L318.38 345.23L318.38 420.23L253.43 457.73L188.48 420.23L188.48 345.23zM188.48 1545.23L253.43 1582.73L253.43 1657.73L188.48 1695.23L123.52 1657.73L123.52 1582.73zM318.38 -29.77L383.34 7.73L383.34 82.73L318.38 120.23L253.43 82.73L253.43 7.73zM383.34 757.73L448.29 795.23L448.29 870.23L383.34 907.73L318.38 870.23L318.38 795.23zM318.38 1095.23L383.34 1132.73L383.34 1207.73L318.38 1245.23L253.43 1207.73L253.43 1132.73zM318.38 1320.23L383.34 1357.73L383.34 1432.73L318.38 1470.23L253.43 1432.73L253.43 1357.73zM383.34 1432.73L448.29 1470.23L448.29 1545.23L383.34 1582.73L318.38 1545.23L318.38 1470.23zM448.29 -29.77L513.25 7.73L513.25 82.73L448.29 120.23L383.34 82.73L383.34 7.73zM448.29 645.23L513.25 682.73L513.25 757.73L448.29 795.23L383.34 757.73L383.34 682.73zM448.29 870.23L513.25 907.73L513.25 982.73L448.29 1020.23L383.34 982.73L383.34 907.73zM513.25 982.73L578.2 1020.23L578.2 1095.23L513.25 1132.73L448.29 1095.23L448.29 1020.23zM448.29 1095.23L513.25 1132.73L513.25 1207.73L448.29 1245.23L383.34 1207.73L383.34 1132.73zM513.25 1207.73L578.2 1245.23L578.2 1320.23L513.25 1357.73L448.29 1320.23L448.29 1245.23zM513.25 1432.73L578.2 1470.23L578.2 1545.23L513.25 1582.73L448.29 1545.23L448.29 1470.23zM643.15 1207.73L708.11 1245.23L708.11 1320.23L643.15 1357.73L578.2 1320.23L578.2 1245.23zM708.11 -29.77L773.06 7.73L773.06 82.73L708.11 120.23L643.15 82.73L643.15 7.73zM708.11 195.23L773.06 232.73L773.06 307.73L708.11 345.23L643.15 307.73L643.15 232.73zM708.11 420.23L773.06 457.73L773.06 532.73L708.11 570.23L643.15 532.73L643.15 457.73zM773.06 532.73L838.02 570.23L838.02 645.23L773.06 682.73L708.11 645.23L708.11 570.23zM708.11 645.23L773.06 682.73L773.06 757.73L708.11 795.23L643.15 757.73L643.15 682.73zM773.06 1207.73L838.02 1245.23L838.02 1320.23L773.06 1357.73L708.11 1320.23L708.11 1245.23zM708.11 1320.23L773.06 1357.73L773.06 1432.73L708.11 1470.23L643.15 1432.73L643.15 1357.73zM773.06 1432.73L838.02 1470.23L838.02 1545.23L773.06 1582.73L708.11 1545.23L708.11 1470.23zM902.97 82.73L967.92 120.23L967.92 195.23L902.97 232.73L838.01 195.23L838.01 120.23zM902.97 307.73L967.92 345.23L967.92 420.23L902.97 457.73L838.01 420.23L838.01 345.23zM838.01 420.23L902.97 457.73L902.97 532.73L838.01 570.23L773.06 532.73L773.06 457.73zM902.97 757.73L967.92 795.23L967.92 870.23L902.97 907.73L838.01 870.23L838.01 795.23zM902.97 982.73L967.92 1020.23L967.92 1095.23L902.97 1132.73L838.01 1095.23L838.01 1020.23zM838.01 1545.23L902.97 1582.73L902.97 1657.73L838.01 1695.23L773.06 1657.73L773.06 1582.73zM967.92 -29.77L1032.88 7.73L1032.88 82.73L967.92 120.23L902.97 82.73L902.97 7.73zM1032.88 82.73L1097.83 120.23L1097.83 195.23L1032.88 232.73L967.92 195.23L967.92 120.23zM967.92 420.23L1032.88 457.73L1032.88 532.73L967.92 570.23L902.97 532.73L902.97 457.73zM1032.88 532.73L1097.83 570.23L1097.83 645.23L1032.88 682.73L967.92 645.23L967.92 570.23zM1032.88 757.73L1097.83 795.23L1097.83 870.23L1032.88 907.73L967.92 870.23L967.92 795.23zM967.92 870.23L1032.88 907.73L1032.88 982.73L967.92 1020.23L902.97 982.73L902.97 907.73zM1032.88 982.73L1097.83 1020.23L1097.83 1095.23L1032.88 1132.73L967.92 1095.23L967.92 1020.23zM1032.88 1207.73L1097.83 1245.23L1097.83 1320.23L1032.88 1357.73L967.92 1320.23L967.92 1245.23zM967.92 1545.23L1032.88 1582.73L1032.88 1657.73L967.92 1695.23L902.97 1657.73L902.97 1582.73zM1162.78 82.73L1227.74 120.23L1227.74 195.23L1162.78 232.73L1097.83 195.23L1097.83 120.23zM1097.83 645.23L1162.78 682.73L1162.78 757.73L1097.83 795.23L1032.88 757.73L1032.88 682.73zM1097.83 1320.23L1162.78 1357.73L1162.78 1432.73L1097.83 1470.23L1032.88 1432.73L1032.88 1357.73zM1097.83 1545.23L1162.78 1582.73L1162.78 1657.73L1097.83 1695.23L1032.88 1657.73L1032.88 1582.73zM1227.74 -29.77L1292.69 7.73L1292.69 82.73L1227.74 120.23L1162.78 82.73L1162.78 7.73zM1292.69 82.73L1357.64 120.23L1357.64 195.23L1292.69 232.73L1227.74 195.23L1227.74 120.23zM1227.74 195.23L1292.69 232.73L1292.69 307.73L1227.74 345.23L1162.78 307.73L1162.78 232.73zM1292.69 307.73L1357.64 345.23L1357.64 420.23L1292.69 457.73L1227.74 420.23L1227.74 345.23zM1227.74 645.23L1292.69 682.73L1292.69 757.73L1227.74 795.23L1162.78 757.73L1162.78 682.73zM1227.74 870.23L1292.69 907.73L1292.69 982.73L1227.74 1020.23L1162.78 982.73L1162.78 907.73zM1292.69 982.73L1357.64 1020.23L1357.64 1095.23L1292.69 1132.73L1227.74 1095.23L1227.74 1020.23zM1227.74 1095.23L1292.69 1132.73L1292.69 1207.73L1227.74 1245.23L1162.78 1207.73L1162.78 1132.73zM1227.74 1545.23L1292.69 1582.73L1292.69 1657.73L1227.74 1695.23L1162.78 1657.73L1162.78 1582.73zM1422.6 307.73L1487.55 345.23L1487.55 420.23L1422.6 457.73L1357.64 420.23L1357.64 345.23zM1357.64 870.23L1422.6 907.73L1422.6 982.73L1357.64 1020.23L1292.69 982.73L1292.69 907.73zM1357.64 1095.23L1422.6 1132.73L1422.6 1207.73L1357.64 1245.23L1292.69 1207.73L1292.69 1132.73zM1422.6 1207.73L1487.55 1245.23L1487.55 1320.23L1422.6 1357.73L1357.64 1320.23L1357.64 1245.23zM1487.55 -29.77L1552.51 7.73L1552.51 82.73L1487.55 120.23L1422.6 82.73L1422.6 7.73zM1552.51 307.73L1617.46 345.23L1617.46 420.23L1552.51 457.73L1487.55 420.23L1487.55 345.23zM1487.55 645.23L1552.51 682.73L1552.51 757.73L1487.55 795.23L1422.6 757.73L1422.6 682.73zM1487.55 870.23L1552.51 907.73L1552.51 982.73L1487.55 1020.23L1422.6 982.73L1422.6 907.73zM1552.51 982.73L1617.46 1020.23L1617.46 1095.23L1552.51 1132.73L1487.55 1095.23L1487.55 1020.23zM1617.46 -29.77L1682.41 7.73L1682.41 82.73L1617.46 120.23L1552.51 82.73L1552.51 7.73zM1617.46 195.23L1682.41 232.73L1682.41 307.73L1617.46 345.23L1552.51 307.73L1552.51 232.73zM1617.46 420.23L1682.41 457.73L1682.41 532.73L1617.46 570.23L1552.51 532.73L1552.51 457.73zM1682.41 757.73L1747.37 795.23L1747.37 870.23L1682.41 907.73L1617.46 870.23L1617.46 795.23zM1617.46 870.23L1682.41 907.73L1682.41 982.73L1617.46 1020.23L1552.51 982.73L1552.51 907.73zM1682.41 1432.73L1747.37 1470.23L1747.37 1545.23L1682.41 1582.73L1617.46 1545.23L1617.46 1470.23zM1747.37 195.23L1812.32 232.73L1812.32 307.73L1747.37 345.23L1682.41 307.73L1682.41 232.73zM1812.32 532.73L1877.27 570.23L1877.27 645.23L1812.32 682.73L1747.37 645.23L1747.37 570.23zM1812.32 757.73L1877.27 795.23L1877.27 870.23L1812.32 907.73L1747.37 870.23L1747.37 795.23zM1747.37 870.23L1812.32 907.73L1812.32 982.73L1747.37 1020.23L1682.41 982.73L1682.41 907.73zM1747.37 1095.23L1812.32 1132.73L1812.32 1207.73L1747.37 1245.23L1682.41 1207.73L1682.41 1132.73zM1812.32 1432.73L1877.27 1470.23L1877.27 1545.23L1812.32 1582.73L1747.37 1545.23L1747.37 1470.23zM1747.37 1545.23L1812.32 1582.73L1812.32 1657.73L1747.37 1695.23L1682.41 1657.73L1682.41 1582.73zM1942.23 82.73L2007.18 120.23L2007.18 195.23L1942.23 232.73L1877.27 195.23L1877.27 120.23zM1942.23 307.73L2007.18 345.23L2007.18 420.23L1942.23 457.73L1877.27 420.23L1877.27 345.23zM1877.27 1545.23L1942.23 1582.73L1942.23 1657.73L1877.27 1695.23L1812.32 1657.73L1812.32 1582.73zM2072.14 757.73L2137.09 795.23L2137.09 870.23L2072.14 907.73L2007.18 870.23L2007.18 795.23zM2007.18 870.23L2072.14 907.73L2072.14 982.73L2007.18 1020.23L1942.23 982.73L1942.23 907.73zM2072.14 982.73L2137.09 1020.23L2137.09 1095.23L2072.14 1132.73L2007.18 1095.23L2007.18 1020.23zM2007.18 1320.23L2072.14 1357.73L2072.14 1432.73L2007.18 1470.23L1942.23 1432.73L1942.23 1357.73zM2072.14 1432.73L2137.09 1470.23L2137.09 1545.23L2072.14 1582.73L2007.18 1545.23L2007.18 1470.23zM2007.18 1545.23L2072.14 1582.73L2072.14 1657.73L2007.18 1695.23L1942.23 1657.73L1942.23 1582.73zM2137.09 -29.77L2202.04 7.73L2202.04 82.73L2137.09 120.23L2072.14 82.73L2072.14 7.73zM2202.04 307.73L2267 345.23L2267 420.23L2202.04 457.73L2137.09 420.23L2137.09 345.23zM2202.04 532.73L2267 570.23L2267 645.23L2202.04 682.73L2137.09 645.23L2137.09 570.23zM2137.09 645.23L2202.04 682.73L2202.04 757.73L2137.09 795.23L2072.14 757.73L2072.14 682.73zM2202.04 757.73L2267 795.23L2267 870.23L2202.04 907.73L2137.09 870.23L2137.09 795.23zM2137.09 870.23L2202.04 907.73L2202.04 982.73L2137.09 1020.23L2072.14 982.73L2072.14 907.73zM2202.04 982.73L2267 1020.23L2267 1095.23L2202.04 1132.73L2137.09 1095.23L2137.09 1020.23zM2202.04 1207.73L2267 1245.23L2267 1320.23L2202.04 1357.73L2137.09 1320.23L2137.09 1245.23zM2331.95 82.73L2396.91 120.23L2396.91 195.23L2331.95 232.73L2267 195.23L2267 120.23zM2331.95 307.73L2396.91 345.23L2396.91 420.23L2331.95 457.73L2267 420.23L2267 345.23zM2267 420.23L2331.95 457.73L2331.95 532.73L2267 570.23L2202.04 532.73L2202.04 457.73zM2267 645.23L2331.95 682.73L2331.95 757.73L2267 795.23L2202.04 757.73L2202.04 682.73zM2267 870.23L2331.95 907.73L2331.95 982.73L2267 1020.23L2202.04 982.73L2202.04 907.73zM2267 1095.23L2331.95 1132.73L2331.95 1207.73L2267 1245.23L2202.04 1207.73L2202.04 1132.73zM2331.95 1432.73L2396.91 1470.23L2396.91 1545.23L2331.95 1582.73L2267 1545.23L2267 1470.23zM2267 1545.23L2331.95 1582.73L2331.95 1657.73L2267 1695.23L2202.04 1657.73L2202.04 1582.73zM2461.86 532.73L2526.81 570.23L2526.81 645.23L2461.86 682.73L2396.91 645.23L2396.91 570.23zM2396.91 645.23L2461.86 682.73L2461.86 757.73L2396.91 795.23L2331.95 757.73L2331.95 682.73zM2396.91 870.23L2461.86 907.73L2461.86 982.73L2396.91 1020.23L2331.95 982.73L2331.95 907.73zM2461.86 982.73L2526.81 1020.23L2526.81 1095.23L2461.86 1132.73L2396.91 1095.23L2396.91 1020.23z" stroke="#03305d" stroke-width="2"></path>
        <path d="M116.02 82.73 a7.5 7.5 0 1 0 15 0 a7.5 7.5 0 1 0 -15 0zM180.98 120.23 a7.5 7.5 0 1 0 15 0 a7.5 7.5 0 1 0 -15 0zM180.98 195.23 a7.5 7.5 0 1 0 15 0 a7.5 7.5 0 1 0 -15 0zM116.02 232.73 a7.5 7.5 0 1 0 15 0 a7.5 7.5 0 1 0 -15 0zM51.07 195.23 a7.5 7.5 0 1 0 15 0 a7.5 7.5 0 1 0 -15 0zM51.07 120.23 a7.5 7.5 0 1 0 15 0 a7.5 7.5 0 1 0 -15 0zM51.07 645.23 a7.5 7.5 0 1 0 15 0 a7.5 7.5 0 1 0 -15 0zM116.02 682.73 a7.5 7.5 0 1 0 15 0 a7.5 7.5 0 1 0 -15 0zM116.02 757.73 a7.5 7.5 0 1 0 15 0 a7.5 7.5 0 1 0 -15 0zM51.07 795.23 a7.5 7.5 0 1 0 15 0 a7.5 7.5 0 1 0 -15 0zM-13.88 757.73 a7.5 7.5 0 1 0 15 0 a7.5 7.5 0 1 0 -15 0zM-13.88 682.73 a7.5 7.5 0 1 0 15 0 a7.5 7.5 0 1 0 -15 0zM116.02 982.73 a7.5 7.5 0 1 0 15 0 a7.5 7.5 0 1 0 -15 0zM180.98 1020.23 a7.5 7.5 0 1 0 15 0 a7.5 7.5 0 1 0 -15 0zM180.98 1095.23 a7.5 7.5 0 1 0 15 0 a7.5 7.5 0 1 0 -15 0zM116.02 1132.73 a7.5 7.5 0 1 0 15 0 a7.5 7.5 0 1 0 -15 0zM51.07 1095.23 a7.5 7.5 0 1 0 15 0 a7.5 7.5 0 1 0 -15 0zM51.07 1020.23 a7.5 7.5 0 1 0 15 0 a7.5 7.5 0 1 0 -15 0zM116.02 1207.73 a7.5 7.5 0 1 0 15 0 a7.5 7.5 0 1 0 -15 0zM51.07 1245.23 a7.5 7.5 0 1 0 15 0 a7.5 7.5 0 1 0 -15 0zM-13.88 1207.73 a7.5 7.5 0 1 0 15 0 a7.5 7.5 0 1 0 -15 0zM-13.88 1132.73 a7.5 7.5 0 1 0 15 0 a7.5 7.5 0 1 0 -15 0zM51.07 1320.23 a7.5 7.5 0 1 0 15 0 a7.5 7.5 0 1 0 -15 0zM116.02 1357.73 a7.5 7.5 0 1 0 15 0 a7.5 7.5 0 1 0 -15 0zM116.02 1432.73 a7.5 7.5 0 1 0 15 0 a7.5 7.5 0 1 0 -15 0zM51.07 1470.23 a7.5 7.5 0 1 0 15 0 a7.5 7.5 0 1 0 -15 0zM-13.88 1432.73 a7.5 7.5 0 1 0 15 0 a7.5 7.5 0 1 0 -15 0zM-13.88 1357.73 a7.5 7.5 0 1 0 15 0 a7.5 7.5 0 1 0 -15 0zM180.98 -29.77 a7.5 7.5 0 1 0 15 0 a7.5 7.5 0 1 0 -15 0zM245.93 7.73 a7.5 7.5 0 1 0 15 0 a7.5 7.5 0 1 0 -15 0zM245.93 82.73 a7.5 7.5 0 1 0 15 0 a7.5 7.5 0 1 0 -15 0zM116.02 7.73 a7.5 7.5 0 1 0 15 0 a7.5 7.5 0 1 0 -15 0zM245.93 307.73 a7.5 7.5 0 1 0 15 0 a7.5 7.5 0 1 0 -15 0zM310.88 345.23 a7.5 7.5 0 1 0 15 0 a7.5 7.5 0 1 0 -15 0zM310.88 420.23 a7.5 7.5 0 1 0 15 0 a7.5 7.5 0 1 0 -15 0zM245.93 457.73 a7.5 7.5 0 1 0 15 0 a7.5 7.5 0 1 0 -15 0zM180.98 420.23 a7.5 7.5 0 1 0 15 0 a7.5 7.5 0 1 0 -15 0zM180.98 345.23 a7.5 7.5 0 1 0 15 0 a7.5 7.5 0 1 0 -15 0zM180.98 1545.23 a7.5 7.5 0 1 0 15 0 a7.5 7.5 0 1 0 -15 0zM245.93 1582.73 a7.5 7.5 0 1 0 15 0 a7.5 7.5 0 1 0 -15 0zM245.93 1657.73 a7.5 7.5 0 1 0 15 0 a7.5 7.5 0 1 0 -15 0zM180.98 1695.23 a7.5 7.5 0 1 0 15 0 a7.5 7.5 0 1 0 -15 0zM116.02 1657.73 a7.5 7.5 0 1 0 15 0 a7.5 7.5 0 1 0 -15 0zM116.02 1582.73 a7.5 7.5 0 1 0 15 0 a7.5 7.5 0 1 0 -15 0zM310.88 -29.77 a7.5 7.5 0 1 0 15 0 a7.5 7.5 0 1 0 -15 0zM375.84 7.73 a7.5 7.5 0 1 0 15 0 a7.5 7.5 0 1 0 -15 0zM375.84 82.73 a7.5 7.5 0 1 0 15 0 a7.5 7.5 0 1 0 -15 0zM310.88 120.23 a7.5 7.5 0 1 0 15 0 a7.5 7.5 0 1 0 -15 0zM375.84 757.73 a7.5 7.5 0 1 0 15 0 a7.5 7.5 0 1 0 -15 0zM440.79 795.23 a7.5 7.5 0 1 0 15 0 a7.5 7.5 0 1 0 -15 0zM440.79 870.23 a7.5 7.5 0 1 0 15 0 a7.5 7.5 0 1 0 -15 0zM375.84 907.73 a7.5 7.5 0 1 0 15 0 a7.5 7.5 0 1 0 -15 0zM310.88 870.23 a7.5 7.5 0 1 0 15 0 a7.5 7.5 0 1 0 -15 0zM310.88 795.23 a7.5 7.5 0 1 0 15 0 a7.5 7.5 0 1 0 -15 0zM310.88 1095.23 a7.5 7.5 0 1 0 15 0 a7.5 7.5 0 1 0 -15 0zM375.84 1132.73 a7.5 7.5 0 1 0 15 0 a7.5 7.5 0 1 0 -15 0zM375.84 1207.73 a7.5 7.5 0 1 0 15 0 a7.5 7.5 0 1 0 -15 0zM310.88 1245.23 a7.5 7.5 0 1 0 15 0 a7.5 7.5 0 1 0 -15 0zM245.93 1207.73 a7.5 7.5 0 1 0 15 0 a7.5 7.5 0 1 0 -15 0zM245.93 1132.73 a7.5 7.5 0 1 0 15 0 a7.5 7.5 0 1 0 -15 0zM310.88 1320.23 a7.5 7.5 0 1 0 15 0 a7.5 7.5 0 1 0 -15 0zM375.84 1357.73 a7.5 7.5 0 1 0 15 0 a7.5 7.5 0 1 0 -15 0zM375.84 1432.73 a7.5 7.5 0 1 0 15 0 a7.5 7.5 0 1 0 -15 0zM310.88 1470.23 a7.5 7.5 0 1 0 15 0 a7.5 7.5 0 1 0 -15 0zM245.93 1432.73 a7.5 7.5 0 1 0 15 0 a7.5 7.5 0 1 0 -15 0zM245.93 1357.73 a7.5 7.5 0 1 0 15 0 a7.5 7.5 0 1 0 -15 0zM440.79 1470.23 a7.5 7.5 0 1 0 15 0 a7.5 7.5 0 1 0 -15 0zM440.79 1545.23 a7.5 7.5 0 1 0 15 0 a7.5 7.5 0 1 0 -15 0zM375.84 1582.73 a7.5 7.5 0 1 0 15 0 a7.5 7.5 0 1 0 -15 0zM310.88 1545.23 a7.5 7.5 0 1 0 15 0 a7.5 7.5 0 1 0 -15 0zM440.79 -29.77 a7.5 7.5 0 1 0 15 0 a7.5 7.5 0 1 0 -15 0zM505.75 7.73 a7.5 7.5 0 1 0 15 0 a7.5 7.5 0 1 0 -15 0zM505.75 82.73 a7.5 7.5 0 1 0 15 0 a7.5 7.5 0 1 0 -15 0zM440.79 120.23 a7.5 7.5 0 1 0 15 0 a7.5 7.5 0 1 0 -15 0zM440.79 645.23 a7.5 7.5 0 1 0 15 0 a7.5 7.5 0 1 0 -15 0zM505.75 682.73 a7.5 7.5 0 1 0 15 0 a7.5 7.5 0 1 0 -15 0zM505.75 757.73 a7.5 7.5 0 1 0 15 0 a7.5 7.5 0 1 0 -15 0zM375.84 682.73 a7.5 7.5 0 1 0 15 0 a7.5 7.5 0 1 0 -15 0zM505.75 907.73 a7.5 7.5 0 1 0 15 0 a7.5 7.5 0 1 0 -15 0zM505.75 982.73 a7.5 7.5 0 1 0 15 0 a7.5 7.5 0 1 0 -15 0zM440.79 1020.23 a7.5 7.5 0 1 0 15 0 a7.5 7.5 0 1 0 -15 0zM375.84 982.73 a7.5 7.5 0 1 0 15 0 a7.5 7.5 0 1 0 -15 0zM570.7 1020.23 a7.5 7.5 0 1 0 15 0 a7.5 7.5 0 1 0 -15 0zM570.7 1095.23 a7.5 7.5 0 1 0 15 0 a7.5 7.5 0 1 0 -15 0zM505.75 1132.73 a7.5 7.5 0 1 0 15 0 a7.5 7.5 0 1 0 -15 0zM440.79 1095.23 a7.5 7.5 0 1 0 15 0 a7.5 7.5 0 1 0 -15 0zM505.75 1207.73 a7.5 7.5 0 1 0 15 0 a7.5 7.5 0 1 0 -15 0zM440.79 1245.23 a7.5 7.5 0 1 0 15 0 a7.5 7.5 0 1 0 -15 0zM570.7 1245.23 a7.5 7.5 0 1 0 15 0 a7.5 7.5 0 1 0 -15 0zM570.7 1320.23 a7.5 7.5 0 1 0 15 0 a7.5 7.5 0 1 0 -15 0zM505.75 1357.73 a7.5 7.5 0 1 0 15 0 a7.5 7.5 0 1 0 -15 0zM440.79 1320.23 a7.5 7.5 0 1 0 15 0 a7.5 7.5 0 1 0 -15 0zM505.75 1432.73 a7.5 7.5 0 1 0 15 0 a7.5 7.5 0 1 0 -15 0zM570.7 1470.23 a7.5 7.5 0 1 0 15 0 a7.5 7.5 0 1 0 -15 0zM570.7 1545.23 a7.5 7.5 0 1 0 15 0 a7.5 7.5 0 1 0 -15 0zM505.75 1582.73 a7.5 7.5 0 1 0 15 0 a7.5 7.5 0 1 0 -15 0zM635.65 1207.73 a7.5 7.5 0 1 0 15 0 a7.5 7.5 0 1 0 -15 0zM700.61 1245.23 a7.5 7.5 0 1 0 15 0 a7.5 7.5 0 1 0 -15 0zM700.61 1320.23 a7.5 7.5 0 1 0 15 0 a7.5 7.5 0 1 0 -15 0zM635.65 1357.73 a7.5 7.5 0 1 0 15 0 a7.5 7.5 0 1 0 -15 0zM700.61 -29.77 a7.5 7.5 0 1 0 15 0 a7.5 7.5 0 1 0 -15 0zM765.56 7.73 a7.5 7.5 0 1 0 15 0 a7.5 7.5 0 1 0 -15 0zM765.56 82.73 a7.5 7.5 0 1 0 15 0 a7.5 7.5 0 1 0 -15 0zM700.61 120.23 a7.5 7.5 0 1 0 15 0 a7.5 7.5 0 1 0 -15 0zM635.65 82.73 a7.5 7.5 0 1 0 15 0 a7.5 7.5 0 1 0 -15 0zM635.65 7.73 a7.5 7.5 0 1 0 15 0 a7.5 7.5 0 1 0 -15 0zM700.61 195.23 a7.5 7.5 0 1 0 15 0 a7.5 7.5 0 1 0 -15 0zM765.56 232.73 a7.5 7.5 0 1 0 15 0 a7.5 7.5 0 1 0 -15 0zM765.56 307.73 a7.5 7.5 0 1 0 15 0 a7.5 7.5 0 1 0 -15 0zM700.61 345.23 a7.5 7.5 0 1 0 15 0 a7.5 7.5 0 1 0 -15 0zM635.65 307.73 a7.5 7.5 0 1 0 15 0 a7.5 7.5 0 1 0 -15 0zM635.65 232.73 a7.5 7.5 0 1 0 15 0 a7.5 7.5 0 1 0 -15 0zM700.61 420.23 a7.5 7.5 0 1 0 15 0 a7.5 7.5 0 1 0 -15 0zM765.56 457.73 a7.5 7.5 0 1 0 15 0 a7.5 7.5 0 1 0 -15 0zM765.56 532.73 a7.5 7.5 0 1 0 15 0 a7.5 7.5 0 1 0 -15 0zM700.61 570.23 a7.5 7.5 0 1 0 15 0 a7.5 7.5 0 1 0 -15 0zM635.65 532.73 a7.5 7.5 0 1 0 15 0 a7.5 7.5 0 1 0 -15 0zM635.65 457.73 a7.5 7.5 0 1 0 15 0 a7.5 7.5 0 1 0 -15 0zM830.52 570.23 a7.5 7.5 0 1 0 15 0 a7.5 7.5 0 1 0 -15 0zM830.52 645.23 a7.5 7.5 0 1 0 15 0 a7.5 7.5 0 1 0 -15 0zM765.56 682.73 a7.5 7.5 0 1 0 15 0 a7.5 7.5 0 1 0 -15 0zM700.61 645.23 a7.5 7.5 0 1 0 15 0 a7.5 7.5 0 1 0 -15 0zM765.56 757.73 a7.5 7.5 0 1 0 15 0 a7.5 7.5 0 1 0 -15 0zM700.61 795.23 a7.5 7.5 0 1 0 15 0 a7.5 7.5 0 1 0 -15 0zM635.65 757.73 a7.5 7.5 0 1 0 15 0 a7.5 7.5 0 1 0 -15 0zM635.65 682.73 a7.5 7.5 0 1 0 15 0 a7.5 7.5 0 1 0 -15 0zM765.56 1207.73 a7.5 7.5 0 1 0 15 0 a7.5 7.5 0 1 0 -15 0zM830.52 1245.23 a7.5 7.5 0 1 0 15 0 a7.5 7.5 0 1 0 -15 0zM830.52 1320.23 a7.5 7.5 0 1 0 15 0 a7.5 7.5 0 1 0 -15 0zM765.56 1357.73 a7.5 7.5 0 1 0 15 0 a7.5 7.5 0 1 0 -15 0zM765.56 1432.73 a7.5 7.5 0 1 0 15 0 a7.5 7.5 0 1 0 -15 0zM700.61 1470.23 a7.5 7.5 0 1 0 15 0 a7.5 7.5 0 1 0 -15 0zM635.65 1432.73 a7.5 7.5 0 1 0 15 0 a7.5 7.5 0 1 0 -15 0zM830.52 1470.23 a7.5 7.5 0 1 0 15 0 a7.5 7.5 0 1 0 -15 0zM830.52 1545.23 a7.5 7.5 0 1 0 15 0 a7.5 7.5 0 1 0 -15 0zM765.56 1582.73 a7.5 7.5 0 1 0 15 0 a7.5 7.5 0 1 0 -15 0zM700.61 1545.23 a7.5 7.5 0 1 0 15 0 a7.5 7.5 0 1 0 -15 0zM895.47 82.73 a7.5 7.5 0 1 0 15 0 a7.5 7.5 0 1 0 -15 0zM960.42 120.23 a7.5 7.5 0 1 0 15 0 a7.5 7.5 0 1 0 -15 0zM960.42 195.23 a7.5 7.5 0 1 0 15 0 a7.5 7.5 0 1 0 -15 0zM895.47 232.73 a7.5 7.5 0 1 0 15 0 a7.5 7.5 0 1 0 -15 0zM830.51 195.23 a7.5 7.5 0 1 0 15 0 a7.5 7.5 0 1 0 -15 0zM830.51 120.23 a7.5 7.5 0 1 0 15 0 a7.5 7.5 0 1 0 -15 0zM895.47 307.73 a7.5 7.5 0 1 0 15 0 a7.5 7.5 0 1 0 -15 0zM960.42 345.23 a7.5 7.5 0 1 0 15 0 a7.5 7.5 0 1 0 -15 0zM960.42 420.23 a7.5 7.5 0 1 0 15 0 a7.5 7.5 0 1 0 -15 0zM895.47 457.73 a7.5 7.5 0 1 0 15 0 a7.5 7.5 0 1 0 -15 0zM830.51 420.23 a7.5 7.5 0 1 0 15 0 a7.5 7.5 0 1 0 -15 0zM830.51 345.23 a7.5 7.5 0 1 0 15 0 a7.5 7.5 0 1 0 -15 0zM895.47 532.73 a7.5 7.5 0 1 0 15 0 a7.5 7.5 0 1 0 -15 0zM830.51 570.23 a7.5 7.5 0 1 0 15 0 a7.5 7.5 0 1 0 -15 0zM895.47 757.73 a7.5 7.5 0 1 0 15 0 a7.5 7.5 0 1 0 -15 0zM960.42 795.23 a7.5 7.5 0 1 0 15 0 a7.5 7.5 0 1 0 -15 0zM960.42 870.23 a7.5 7.5 0 1 0 15 0 a7.5 7.5 0 1 0 -15 0zM895.47 907.73 a7.5 7.5 0 1 0 15 0 a7.5 7.5 0 1 0 -15 0zM830.51 870.23 a7.5 7.5 0 1 0 15 0 a7.5 7.5 0 1 0 -15 0zM830.51 795.23 a7.5 7.5 0 1 0 15 0 a7.5 7.5 0 1 0 -15 0zM895.47 982.73 a7.5 7.5 0 1 0 15 0 a7.5 7.5 0 1 0 -15 0zM960.42 1020.23 a7.5 7.5 0 1 0 15 0 a7.5 7.5 0 1 0 -15 0zM960.42 1095.23 a7.5 7.5 0 1 0 15 0 a7.5 7.5 0 1 0 -15 0zM895.47 1132.73 a7.5 7.5 0 1 0 15 0 a7.5 7.5 0 1 0 -15 0zM830.51 1095.23 a7.5 7.5 0 1 0 15 0 a7.5 7.5 0 1 0 -15 0zM830.51 1020.23 a7.5 7.5 0 1 0 15 0 a7.5 7.5 0 1 0 -15 0zM830.51 1545.23 a7.5 7.5 0 1 0 15 0 a7.5 7.5 0 1 0 -15 0zM895.47 1582.73 a7.5 7.5 0 1 0 15 0 a7.5 7.5 0 1 0 -15 0zM895.47 1657.73 a7.5 7.5 0 1 0 15 0 a7.5 7.5 0 1 0 -15 0zM830.51 1695.23 a7.5 7.5 0 1 0 15 0 a7.5 7.5 0 1 0 -15 0zM765.56 1657.73 a7.5 7.5 0 1 0 15 0 a7.5 7.5 0 1 0 -15 0zM960.42 -29.77 a7.5 7.5 0 1 0 15 0 a7.5 7.5 0 1 0 -15 0zM1025.38 7.73 a7.5 7.5 0 1 0 15 0 a7.5 7.5 0 1 0 -15 0zM1025.38 82.73 a7.5 7.5 0 1 0 15 0 a7.5 7.5 0 1 0 -15 0zM895.47 7.73 a7.5 7.5 0 1 0 15 0 a7.5 7.5 0 1 0 -15 0zM1090.33 120.23 a7.5 7.5 0 1 0 15 0 a7.5 7.5 0 1 0 -15 0zM1090.33 195.23 a7.5 7.5 0 1 0 15 0 a7.5 7.5 0 1 0 -15 0zM1025.38 232.73 a7.5 7.5 0 1 0 15 0 a7.5 7.5 0 1 0 -15 0zM1025.38 457.73 a7.5 7.5 0 1 0 15 0 a7.5 7.5 0 1 0 -15 0zM1025.38 532.73 a7.5 7.5 0 1 0 15 0 a7.5 7.5 0 1 0 -15 0zM960.42 570.23 a7.5 7.5 0 1 0 15 0 a7.5 7.5 0 1 0 -15 0zM1090.33 570.23 a7.5 7.5 0 1 0 15 0 a7.5 7.5 0 1 0 -15 0zM1090.33 645.23 a7.5 7.5 0 1 0 15 0 a7.5 7.5 0 1 0 -15 0zM1025.38 682.73 a7.5 7.5 0 1 0 15 0 a7.5 7.5 0 1 0 -15 0zM960.42 645.23 a7.5 7.5 0 1 0 15 0 a7.5 7.5 0 1 0 -15 0zM1025.38 757.73 a7.5 7.5 0 1 0 15 0 a7.5 7.5 0 1 0 -15 0zM1090.33 795.23 a7.5 7.5 0 1 0 15 0 a7.5 7.5 0 1 0 -15 0zM1090.33 870.23 a7.5 7.5 0 1 0 15 0 a7.5 7.5 0 1 0 -15 0zM1025.38 907.73 a7.5 7.5 0 1 0 15 0 a7.5 7.5 0 1 0 -15 0zM1025.38 982.73 a7.5 7.5 0 1 0 15 0 a7.5 7.5 0 1 0 -15 0zM1090.33 1020.23 a7.5 7.5 0 1 0 15 0 a7.5 7.5 0 1 0 -15 0zM1090.33 1095.23 a7.5 7.5 0 1 0 15 0 a7.5 7.5 0 1 0 -15 0zM1025.38 1132.73 a7.5 7.5 0 1 0 15 0 a7.5 7.5 0 1 0 -15 0zM1025.38 1207.73 a7.5 7.5 0 1 0 15 0 a7.5 7.5 0 1 0 -15 0zM1090.33 1245.23 a7.5 7.5 0 1 0 15 0 a7.5 7.5 0 1 0 -15 0zM1090.33 1320.23 a7.5 7.5 0 1 0 15 0 a7.5 7.5 0 1 0 -15 0zM1025.38 1357.73 a7.5 7.5 0 1 0 15 0 a7.5 7.5 0 1 0 -15 0zM960.42 1320.23 a7.5 7.5 0 1 0 15 0 a7.5 7.5 0 1 0 -15 0zM960.42 1245.23 a7.5 7.5 0 1 0 15 0 a7.5 7.5 0 1 0 -15 0zM960.42 1545.23 a7.5 7.5 0 1 0 15 0 a7.5 7.5 0 1 0 -15 0zM1025.38 1582.73 a7.5 7.5 0 1 0 15 0 a7.5 7.5 0 1 0 -15 0zM1025.38 1657.73 a7.5 7.5 0 1 0 15 0 a7.5 7.5 0 1 0 -15 0zM960.42 1695.23 a7.5 7.5 0 1 0 15 0 a7.5 7.5 0 1 0 -15 0zM1155.28 82.73 a7.5 7.5 0 1 0 15 0 a7.5 7.5 0 1 0 -15 0zM1220.24 120.23 a7.5 7.5 0 1 0 15 0 a7.5 7.5 0 1 0 -15 0zM1220.24 195.23 a7.5 7.5 0 1 0 15 0 a7.5 7.5 0 1 0 -15 0zM1155.28 232.73 a7.5 7.5 0 1 0 15 0 a7.5 7.5 0 1 0 -15 0zM1155.28 682.73 a7.5 7.5 0 1 0 15 0 a7.5 7.5 0 1 0 -15 0zM1155.28 757.73 a7.5 7.5 0 1 0 15 0 a7.5 7.5 0 1 0 -15 0zM1155.28 1357.73 a7.5 7.5 0 1 0 15 0 a7.5 7.5 0 1 0 -15 0zM1155.28 1432.73 a7.5 7.5 0 1 0 15 0 a7.5 7.5 0 1 0 -15 0zM1090.33 1470.23 a7.5 7.5 0 1 0 15 0 a7.5 7.5 0 1 0 -15 0zM1025.38 1432.73 a7.5 7.5 0 1 0 15 0 a7.5 7.5 0 1 0 -15 0zM1090.33 1545.23 a7.5 7.5 0 1 0 15 0 a7.5 7.5 0 1 0 -15 0zM1155.28 1582.73 a7.5 7.5 0 1 0 15 0 a7.5 7.5 0 1 0 -15 0zM1155.28 1657.73 a7.5 7.5 0 1 0 15 0 a7.5 7.5 0 1 0 -15 0zM1090.33 1695.23 a7.5 7.5 0 1 0 15 0 a7.5 7.5 0 1 0 -15 0zM1220.24 -29.77 a7.5 7.5 0 1 0 15 0 a7.5 7.5 0 1 0 -15 0zM1285.19 7.73 a7.5 7.5 0 1 0 15 0 a7.5 7.5 0 1 0 -15 0zM1285.19 82.73 a7.5 7.5 0 1 0 15 0 a7.5 7.5 0 1 0 -15 0zM1155.28 7.73 a7.5 7.5 0 1 0 15 0 a7.5 7.5 0 1 0 -15 0zM1350.14 120.23 a7.5 7.5 0 1 0 15 0 a7.5 7.5 0 1 0 -15 0zM1350.14 195.23 a7.5 7.5 0 1 0 15 0 a7.5 7.5 0 1 0 -15 0zM1285.19 232.73 a7.5 7.5 0 1 0 15 0 a7.5 7.5 0 1 0 -15 0zM1285.19 307.73 a7.5 7.5 0 1 0 15 0 a7.5 7.5 0 1 0 -15 0zM1220.24 345.23 a7.5 7.5 0 1 0 15 0 a7.5 7.5 0 1 0 -15 0zM1155.28 307.73 a7.5 7.5 0 1 0 15 0 a7.5 7.5 0 1 0 -15 0zM1350.14 345.23 a7.5 7.5 0 1 0 15 0 a7.5 7.5 0 1 0 -15 0zM1350.14 420.23 a7.5 7.5 0 1 0 15 0 a7.5 7.5 0 1 0 -15 0zM1285.19 457.73 a7.5 7.5 0 1 0 15 0 a7.5 7.5 0 1 0 -15 0zM1220.24 420.23 a7.5 7.5 0 1 0 15 0 a7.5 7.5 0 1 0 -15 0zM1220.24 645.23 a7.5 7.5 0 1 0 15 0 a7.5 7.5 0 1 0 -15 0zM1285.19 682.73 a7.5 7.5 0 1 0 15 0 a7.5 7.5 0 1 0 -15 0zM1285.19 757.73 a7.5 7.5 0 1 0 15 0 a7.5 7.5 0 1 0 -15 0zM1220.24 795.23 a7.5 7.5 0 1 0 15 0 a7.5 7.5 0 1 0 -15 0zM1220.24 870.23 a7.5 7.5 0 1 0 15 0 a7.5 7.5 0 1 0 -15 0zM1285.19 907.73 a7.5 7.5 0 1 0 15 0 a7.5 7.5 0 1 0 -15 0zM1285.19 982.73 a7.5 7.5 0 1 0 15 0 a7.5 7.5 0 1 0 -15 0zM1220.24 1020.23 a7.5 7.5 0 1 0 15 0 a7.5 7.5 0 1 0 -15 0zM1155.28 982.73 a7.5 7.5 0 1 0 15 0 a7.5 7.5 0 1 0 -15 0zM1155.28 907.73 a7.5 7.5 0 1 0 15 0 a7.5 7.5 0 1 0 -15 0zM1350.14 1020.23 a7.5 7.5 0 1 0 15 0 a7.5 7.5 0 1 0 -15 0zM1350.14 1095.23 a7.5 7.5 0 1 0 15 0 a7.5 7.5 0 1 0 -15 0zM1285.19 1132.73 a7.5 7.5 0 1 0 15 0 a7.5 7.5 0 1 0 -15 0zM1220.24 1095.23 a7.5 7.5 0 1 0 15 0 a7.5 7.5 0 1 0 -15 0zM1285.19 1207.73 a7.5 7.5 0 1 0 15 0 a7.5 7.5 0 1 0 -15 0zM1220.24 1245.23 a7.5 7.5 0 1 0 15 0 a7.5 7.5 0 1 0 -15 0zM1155.28 1207.73 a7.5 7.5 0 1 0 15 0 a7.5 7.5 0 1 0 -15 0zM1155.28 1132.73 a7.5 7.5 0 1 0 15 0 a7.5 7.5 0 1 0 -15 0zM1220.24 1545.23 a7.5 7.5 0 1 0 15 0 a7.5 7.5 0 1 0 -15 0zM1285.19 1582.73 a7.5 7.5 0 1 0 15 0 a7.5 7.5 0 1 0 -15 0zM1285.19 1657.73 a7.5 7.5 0 1 0 15 0 a7.5 7.5 0 1 0 -15 0zM1220.24 1695.23 a7.5 7.5 0 1 0 15 0 a7.5 7.5 0 1 0 -15 0zM1415.1 307.73 a7.5 7.5 0 1 0 15 0 a7.5 7.5 0 1 0 -15 0zM1480.05 345.23 a7.5 7.5 0 1 0 15 0 a7.5 7.5 0 1 0 -15 0zM1480.05 420.23 a7.5 7.5 0 1 0 15 0 a7.5 7.5 0 1 0 -15 0zM1415.1 457.73 a7.5 7.5 0 1 0 15 0 a7.5 7.5 0 1 0 -15 0zM1350.14 870.23 a7.5 7.5 0 1 0 15 0 a7.5 7.5 0 1 0 -15 0zM1415.1 907.73 a7.5 7.5 0 1 0 15 0 a7.5 7.5 0 1 0 -15 0zM1415.1 982.73 a7.5 7.5 0 1 0 15 0 a7.5 7.5 0 1 0 -15 0zM1415.1 1132.73 a7.5 7.5 0 1 0 15 0 a7.5 7.5 0 1 0 -15 0zM1415.1 1207.73 a7.5 7.5 0 1 0 15 0 a7.5 7.5 0 1 0 -15 0zM1350.14 1245.23 a7.5 7.5 0 1 0 15 0 a7.5 7.5 0 1 0 -15 0zM1480.05 1245.23 a7.5 7.5 0 1 0 15 0 a7.5 7.5 0 1 0 -15 0zM1480.05 1320.23 a7.5 7.5 0 1 0 15 0 a7.5 7.5 0 1 0 -15 0zM1415.1 1357.73 a7.5 7.5 0 1 0 15 0 a7.5 7.5 0 1 0 -15 0zM1350.14 1320.23 a7.5 7.5 0 1 0 15 0 a7.5 7.5 0 1 0 -15 0zM1480.05 -29.77 a7.5 7.5 0 1 0 15 0 a7.5 7.5 0 1 0 -15 0zM1545.01 7.73 a7.5 7.5 0 1 0 15 0 a7.5 7.5 0 1 0 -15 0zM1545.01 82.73 a7.5 7.5 0 1 0 15 0 a7.5 7.5 0 1 0 -15 0zM1480.05 120.23 a7.5 7.5 0 1 0 15 0 a7.5 7.5 0 1 0 -15 0zM1415.1 82.73 a7.5 7.5 0 1 0 15 0 a7.5 7.5 0 1 0 -15 0zM1415.1 7.73 a7.5 7.5 0 1 0 15 0 a7.5 7.5 0 1 0 -15 0zM1545.01 307.73 a7.5 7.5 0 1 0 15 0 a7.5 7.5 0 1 0 -15 0zM1609.96 345.23 a7.5 7.5 0 1 0 15 0 a7.5 7.5 0 1 0 -15 0zM1609.96 420.23 a7.5 7.5 0 1 0 15 0 a7.5 7.5 0 1 0 -15 0zM1545.01 457.73 a7.5 7.5 0 1 0 15 0 a7.5 7.5 0 1 0 -15 0zM1480.05 645.23 a7.5 7.5 0 1 0 15 0 a7.5 7.5 0 1 0 -15 0zM1545.01 682.73 a7.5 7.5 0 1 0 15 0 a7.5 7.5 0 1 0 -15 0zM1545.01 757.73 a7.5 7.5 0 1 0 15 0 a7.5 7.5 0 1 0 -15 0zM1480.05 795.23 a7.5 7.5 0 1 0 15 0 a7.5 7.5 0 1 0 -15 0zM1415.1 757.73 a7.5 7.5 0 1 0 15 0 a7.5 7.5 0 1 0 -15 0zM1415.1 682.73 a7.5 7.5 0 1 0 15 0 a7.5 7.5 0 1 0 -15 0zM1480.05 870.23 a7.5 7.5 0 1 0 15 0 a7.5 7.5 0 1 0 -15 0zM1545.01 907.73 a7.5 7.5 0 1 0 15 0 a7.5 7.5 0 1 0 -15 0zM1545.01 982.73 a7.5 7.5 0 1 0 15 0 a7.5 7.5 0 1 0 -15 0zM1480.05 1020.23 a7.5 7.5 0 1 0 15 0 a7.5 7.5 0 1 0 -15 0zM1609.96 1020.23 a7.5 7.5 0 1 0 15 0 a7.5 7.5 0 1 0 -15 0zM1609.96 1095.23 a7.5 7.5 0 1 0 15 0 a7.5 7.5 0 1 0 -15 0zM1545.01 1132.73 a7.5 7.5 0 1 0 15 0 a7.5 7.5 0 1 0 -15 0zM1480.05 1095.23 a7.5 7.5 0 1 0 15 0 a7.5 7.5 0 1 0 -15 0zM1609.96 -29.77 a7.5 7.5 0 1 0 15 0 a7.5 7.5 0 1 0 -15 0zM1674.91 7.73 a7.5 7.5 0 1 0 15 0 a7.5 7.5 0 1 0 -15 0zM1674.91 82.73 a7.5 7.5 0 1 0 15 0 a7.5 7.5 0 1 0 -15 0zM1609.96 120.23 a7.5 7.5 0 1 0 15 0 a7.5 7.5 0 1 0 -15 0zM1609.96 195.23 a7.5 7.5 0 1 0 15 0 a7.5 7.5 0 1 0 -15 0zM1674.91 232.73 a7.5 7.5 0 1 0 15 0 a7.5 7.5 0 1 0 -15 0zM1674.91 307.73 a7.5 7.5 0 1 0 15 0 a7.5 7.5 0 1 0 -15 0zM1545.01 232.73 a7.5 7.5 0 1 0 15 0 a7.5 7.5 0 1 0 -15 0zM1674.91 457.73 a7.5 7.5 0 1 0 15 0 a7.5 7.5 0 1 0 -15 0zM1674.91 532.73 a7.5 7.5 0 1 0 15 0 a7.5 7.5 0 1 0 -15 0zM1609.96 570.23 a7.5 7.5 0 1 0 15 0 a7.5 7.5 0 1 0 -15 0zM1545.01 532.73 a7.5 7.5 0 1 0 15 0 a7.5 7.5 0 1 0 -15 0zM1674.91 757.73 a7.5 7.5 0 1 0 15 0 a7.5 7.5 0 1 0 -15 0zM1739.87 795.23 a7.5 7.5 0 1 0 15 0 a7.5 7.5 0 1 0 -15 0zM1739.87 870.23 a7.5 7.5 0 1 0 15 0 a7.5 7.5 0 1 0 -15 0zM1674.91 907.73 a7.5 7.5 0 1 0 15 0 a7.5 7.5 0 1 0 -15 0zM1609.96 870.23 a7.5 7.5 0 1 0 15 0 a7.5 7.5 0 1 0 -15 0zM1609.96 795.23 a7.5 7.5 0 1 0 15 0 a7.5 7.5 0 1 0 -15 0zM1674.91 982.73 a7.5 7.5 0 1 0 15 0 a7.5 7.5 0 1 0 -15 0zM1674.91 1432.73 a7.5 7.5 0 1 0 15 0 a7.5 7.5 0 1 0 -15 0zM1739.87 1470.23 a7.5 7.5 0 1 0 15 0 a7.5 7.5 0 1 0 -15 0zM1739.87 1545.23 a7.5 7.5 0 1 0 15 0 a7.5 7.5 0 1 0 -15 0zM1674.91 1582.73 a7.5 7.5 0 1 0 15 0 a7.5 7.5 0 1 0 -15 0zM1609.96 1545.23 a7.5 7.5 0 1 0 15 0 a7.5 7.5 0 1 0 -15 0zM1609.96 1470.23 a7.5 7.5 0 1 0 15 0 a7.5 7.5 0 1 0 -15 0zM1739.87 195.23 a7.5 7.5 0 1 0 15 0 a7.5 7.5 0 1 0 -15 0zM1804.82 232.73 a7.5 7.5 0 1 0 15 0 a7.5 7.5 0 1 0 -15 0zM1804.82 307.73 a7.5 7.5 0 1 0 15 0 a7.5 7.5 0 1 0 -15 0zM1739.87 345.23 a7.5 7.5 0 1 0 15 0 a7.5 7.5 0 1 0 -15 0zM1804.82 532.73 a7.5 7.5 0 1 0 15 0 a7.5 7.5 0 1 0 -15 0zM1869.77 570.23 a7.5 7.5 0 1 0 15 0 a7.5 7.5 0 1 0 -15 0zM1869.77 645.23 a7.5 7.5 0 1 0 15 0 a7.5 7.5 0 1 0 -15 0zM1804.82 682.73 a7.5 7.5 0 1 0 15 0 a7.5 7.5 0 1 0 -15 0zM1739.87 645.23 a7.5 7.5 0 1 0 15 0 a7.5 7.5 0 1 0 -15 0zM1739.87 570.23 a7.5 7.5 0 1 0 15 0 a7.5 7.5 0 1 0 -15 0zM1804.82 757.73 a7.5 7.5 0 1 0 15 0 a7.5 7.5 0 1 0 -15 0zM1869.77 795.23 a7.5 7.5 0 1 0 15 0 a7.5 7.5 0 1 0 -15 0zM1869.77 870.23 a7.5 7.5 0 1 0 15 0 a7.5 7.5 0 1 0 -15 0zM1804.82 907.73 a7.5 7.5 0 1 0 15 0 a7.5 7.5 0 1 0 -15 0zM1804.82 982.73 a7.5 7.5 0 1 0 15 0 a7.5 7.5 0 1 0 -15 0zM1739.87 1020.23 a7.5 7.5 0 1 0 15 0 a7.5 7.5 0 1 0 -15 0zM1739.87 1095.23 a7.5 7.5 0 1 0 15 0 a7.5 7.5 0 1 0 -15 0zM1804.82 1132.73 a7.5 7.5 0 1 0 15 0 a7.5 7.5 0 1 0 -15 0zM1804.82 1207.73 a7.5 7.5 0 1 0 15 0 a7.5 7.5 0 1 0 -15 0zM1739.87 1245.23 a7.5 7.5 0 1 0 15 0 a7.5 7.5 0 1 0 -15 0zM1674.91 1207.73 a7.5 7.5 0 1 0 15 0 a7.5 7.5 0 1 0 -15 0zM1674.91 1132.73 a7.5 7.5 0 1 0 15 0 a7.5 7.5 0 1 0 -15 0zM1804.82 1432.73 a7.5 7.5 0 1 0 15 0 a7.5 7.5 0 1 0 -15 0zM1869.77 1470.23 a7.5 7.5 0 1 0 15 0 a7.5 7.5 0 1 0 -15 0zM1869.77 1545.23 a7.5 7.5 0 1 0 15 0 a7.5 7.5 0 1 0 -15 0zM1804.82 1582.73 a7.5 7.5 0 1 0 15 0 a7.5 7.5 0 1 0 -15 0zM1804.82 1657.73 a7.5 7.5 0 1 0 15 0 a7.5 7.5 0 1 0 -15 0zM1739.87 1695.23 a7.5 7.5 0 1 0 15 0 a7.5 7.5 0 1 0 -15 0zM1674.91 1657.73 a7.5 7.5 0 1 0 15 0 a7.5 7.5 0 1 0 -15 0zM1934.73 82.73 a7.5 7.5 0 1 0 15 0 a7.5 7.5 0 1 0 -15 0zM1999.68 120.23 a7.5 7.5 0 1 0 15 0 a7.5 7.5 0 1 0 -15 0zM1999.68 195.23 a7.5 7.5 0 1 0 15 0 a7.5 7.5 0 1 0 -15 0zM1934.73 232.73 a7.5 7.5 0 1 0 15 0 a7.5 7.5 0 1 0 -15 0zM1869.77 195.23 a7.5 7.5 0 1 0 15 0 a7.5 7.5 0 1 0 -15 0zM1869.77 120.23 a7.5 7.5 0 1 0 15 0 a7.5 7.5 0 1 0 -15 0zM1934.73 307.73 a7.5 7.5 0 1 0 15 0 a7.5 7.5 0 1 0 -15 0zM1999.68 345.23 a7.5 7.5 0 1 0 15 0 a7.5 7.5 0 1 0 -15 0zM1999.68 420.23 a7.5 7.5 0 1 0 15 0 a7.5 7.5 0 1 0 -15 0zM1934.73 457.73 a7.5 7.5 0 1 0 15 0 a7.5 7.5 0 1 0 -15 0zM1869.77 420.23 a7.5 7.5 0 1 0 15 0 a7.5 7.5 0 1 0 -15 0zM1869.77 345.23 a7.5 7.5 0 1 0 15 0 a7.5 7.5 0 1 0 -15 0zM1934.73 1582.73 a7.5 7.5 0 1 0 15 0 a7.5 7.5 0 1 0 -15 0zM1934.73 1657.73 a7.5 7.5 0 1 0 15 0 a7.5 7.5 0 1 0 -15 0zM1869.77 1695.23 a7.5 7.5 0 1 0 15 0 a7.5 7.5 0 1 0 -15 0zM2064.64 757.73 a7.5 7.5 0 1 0 15 0 a7.5 7.5 0 1 0 -15 0zM2129.59 795.23 a7.5 7.5 0 1 0 15 0 a7.5 7.5 0 1 0 -15 0zM2129.59 870.23 a7.5 7.5 0 1 0 15 0 a7.5 7.5 0 1 0 -15 0zM2064.64 907.73 a7.5 7.5 0 1 0 15 0 a7.5 7.5 0 1 0 -15 0zM1999.68 870.23 a7.5 7.5 0 1 0 15 0 a7.5 7.5 0 1 0 -15 0zM1999.68 795.23 a7.5 7.5 0 1 0 15 0 a7.5 7.5 0 1 0 -15 0zM2064.64 982.73 a7.5 7.5 0 1 0 15 0 a7.5 7.5 0 1 0 -15 0zM1999.68 1020.23 a7.5 7.5 0 1 0 15 0 a7.5 7.5 0 1 0 -15 0zM1934.73 982.73 a7.5 7.5 0 1 0 15 0 a7.5 7.5 0 1 0 -15 0zM1934.73 907.73 a7.5 7.5 0 1 0 15 0 a7.5 7.5 0 1 0 -15 0zM2129.59 1020.23 a7.5 7.5 0 1 0 15 0 a7.5 7.5 0 1 0 -15 0zM2129.59 1095.23 a7.5 7.5 0 1 0 15 0 a7.5 7.5 0 1 0 -15 0zM2064.64 1132.73 a7.5 7.5 0 1 0 15 0 a7.5 7.5 0 1 0 -15 0zM1999.68 1095.23 a7.5 7.5 0 1 0 15 0 a7.5 7.5 0 1 0 -15 0zM1999.68 1320.23 a7.5 7.5 0 1 0 15 0 a7.5 7.5 0 1 0 -15 0zM2064.64 1357.73 a7.5 7.5 0 1 0 15 0 a7.5 7.5 0 1 0 -15 0zM2064.64 1432.73 a7.5 7.5 0 1 0 15 0 a7.5 7.5 0 1 0 -15 0zM1999.68 1470.23 a7.5 7.5 0 1 0 15 0 a7.5 7.5 0 1 0 -15 0zM1934.73 1432.73 a7.5 7.5 0 1 0 15 0 a7.5 7.5 0 1 0 -15 0zM1934.73 1357.73 a7.5 7.5 0 1 0 15 0 a7.5 7.5 0 1 0 -15 0zM2129.59 1470.23 a7.5 7.5 0 1 0 15 0 a7.5 7.5 0 1 0 -15 0zM2129.59 1545.23 a7.5 7.5 0 1 0 15 0 a7.5 7.5 0 1 0 -15 0zM2064.64 1582.73 a7.5 7.5 0 1 0 15 0 a7.5 7.5 0 1 0 -15 0zM1999.68 1545.23 a7.5 7.5 0 1 0 15 0 a7.5 7.5 0 1 0 -15 0zM2064.64 1657.73 a7.5 7.5 0 1 0 15 0 a7.5 7.5 0 1 0 -15 0zM1999.68 1695.23 a7.5 7.5 0 1 0 15 0 a7.5 7.5 0 1 0 -15 0zM2129.59 -29.77 a7.5 7.5 0 1 0 15 0 a7.5 7.5 0 1 0 -15 0zM2194.54 7.73 a7.5 7.5 0 1 0 15 0 a7.5 7.5 0 1 0 -15 0zM2194.54 82.73 a7.5 7.5 0 1 0 15 0 a7.5 7.5 0 1 0 -15 0zM2129.59 120.23 a7.5 7.5 0 1 0 15 0 a7.5 7.5 0 1 0 -15 0zM2064.64 82.73 a7.5 7.5 0 1 0 15 0 a7.5 7.5 0 1 0 -15 0zM2064.64 7.73 a7.5 7.5 0 1 0 15 0 a7.5 7.5 0 1 0 -15 0zM2194.54 307.73 a7.5 7.5 0 1 0 15 0 a7.5 7.5 0 1 0 -15 0zM2259.5 345.23 a7.5 7.5 0 1 0 15 0 a7.5 7.5 0 1 0 -15 0zM2259.5 420.23 a7.5 7.5 0 1 0 15 0 a7.5 7.5 0 1 0 -15 0zM2194.54 457.73 a7.5 7.5 0 1 0 15 0 a7.5 7.5 0 1 0 -15 0zM2129.59 420.23 a7.5 7.5 0 1 0 15 0 a7.5 7.5 0 1 0 -15 0zM2129.59 345.23 a7.5 7.5 0 1 0 15 0 a7.5 7.5 0 1 0 -15 0zM2194.54 532.73 a7.5 7.5 0 1 0 15 0 a7.5 7.5 0 1 0 -15 0zM2259.5 570.23 a7.5 7.5 0 1 0 15 0 a7.5 7.5 0 1 0 -15 0zM2259.5 645.23 a7.5 7.5 0 1 0 15 0 a7.5 7.5 0 1 0 -15 0zM2194.54 682.73 a7.5 7.5 0 1 0 15 0 a7.5 7.5 0 1 0 -15 0zM2129.59 645.23 a7.5 7.5 0 1 0 15 0 a7.5 7.5 0 1 0 -15 0zM2129.59 570.23 a7.5 7.5 0 1 0 15 0 a7.5 7.5 0 1 0 -15 0zM2194.54 757.73 a7.5 7.5 0 1 0 15 0 a7.5 7.5 0 1 0 -15 0zM2064.64 682.73 a7.5 7.5 0 1 0 15 0 a7.5 7.5 0 1 0 -15 0zM2259.5 795.23 a7.5 7.5 0 1 0 15 0 a7.5 7.5 0 1 0 -15 0zM2259.5 870.23 a7.5 7.5 0 1 0 15 0 a7.5 7.5 0 1 0 -15 0zM2194.54 907.73 a7.5 7.5 0 1 0 15 0 a7.5 7.5 0 1 0 -15 0zM2194.54 982.73 a7.5 7.5 0 1 0 15 0 a7.5 7.5 0 1 0 -15 0zM2259.5 1020.23 a7.5 7.5 0 1 0 15 0 a7.5 7.5 0 1 0 -15 0zM2259.5 1095.23 a7.5 7.5 0 1 0 15 0 a7.5 7.5 0 1 0 -15 0zM2194.54 1132.73 a7.5 7.5 0 1 0 15 0 a7.5 7.5 0 1 0 -15 0zM2194.54 1207.73 a7.5 7.5 0 1 0 15 0 a7.5 7.5 0 1 0 -15 0zM2259.5 1245.23 a7.5 7.5 0 1 0 15 0 a7.5 7.5 0 1 0 -15 0zM2259.5 1320.23 a7.5 7.5 0 1 0 15 0 a7.5 7.5 0 1 0 -15 0zM2194.54 1357.73 a7.5 7.5 0 1 0 15 0 a7.5 7.5 0 1 0 -15 0zM2129.59 1320.23 a7.5 7.5 0 1 0 15 0 a7.5 7.5 0 1 0 -15 0zM2129.59 1245.23 a7.5 7.5 0 1 0 15 0 a7.5 7.5 0 1 0 -15 0zM2324.45 82.73 a7.5 7.5 0 1 0 15 0 a7.5 7.5 0 1 0 -15 0zM2389.41 120.23 a7.5 7.5 0 1 0 15 0 a7.5 7.5 0 1 0 -15 0zM2389.41 195.23 a7.5 7.5 0 1 0 15 0 a7.5 7.5 0 1 0 -15 0zM2324.45 232.73 a7.5 7.5 0 1 0 15 0 a7.5 7.5 0 1 0 -15 0zM2259.5 195.23 a7.5 7.5 0 1 0 15 0 a7.5 7.5 0 1 0 -15 0zM2259.5 120.23 a7.5 7.5 0 1 0 15 0 a7.5 7.5 0 1 0 -15 0zM2324.45 307.73 a7.5 7.5 0 1 0 15 0 a7.5 7.5 0 1 0 -15 0zM2389.41 345.23 a7.5 7.5 0 1 0 15 0 a7.5 7.5 0 1 0 -15 0zM2389.41 420.23 a7.5 7.5 0 1 0 15 0 a7.5 7.5 0 1 0 -15 0zM2324.45 457.73 a7.5 7.5 0 1 0 15 0 a7.5 7.5 0 1 0 -15 0zM2324.45 532.73 a7.5 7.5 0 1 0 15 0 a7.5 7.5 0 1 0 -15 0zM2324.45 682.73 a7.5 7.5 0 1 0 15 0 a7.5 7.5 0 1 0 -15 0zM2324.45 757.73 a7.5 7.5 0 1 0 15 0 a7.5 7.5 0 1 0 -15 0zM2324.45 907.73 a7.5 7.5 0 1 0 15 0 a7.5 7.5 0 1 0 -15 0zM2324.45 982.73 a7.5 7.5 0 1 0 15 0 a7.5 7.5 0 1 0 -15 0zM2324.45 1132.73 a7.5 7.5 0 1 0 15 0 a7.5 7.5 0 1 0 -15 0zM2324.45 1207.73 a7.5 7.5 0 1 0 15 0 a7.5 7.5 0 1 0 -15 0zM2324.45 1432.73 a7.5 7.5 0 1 0 15 0 a7.5 7.5 0 1 0 -15 0zM2389.41 1470.23 a7.5 7.5 0 1 0 15 0 a7.5 7.5 0 1 0 -15 0zM2389.41 1545.23 a7.5 7.5 0 1 0 15 0 a7.5 7.5 0 1 0 -15 0zM2324.45 1582.73 a7.5 7.5 0 1 0 15 0 a7.5 7.5 0 1 0 -15 0zM2259.5 1545.23 a7.5 7.5 0 1 0 15 0 a7.5 7.5 0 1 0 -15 0zM2259.5 1470.23 a7.5 7.5 0 1 0 15 0 a7.5 7.5 0 1 0 -15 0zM2324.45 1657.73 a7.5 7.5 0 1 0 15 0 a7.5 7.5 0 1 0 -15 0zM2259.5 1695.23 a7.5 7.5 0 1 0 15 0 a7.5 7.5 0 1 0 -15 0zM2194.54 1657.73 a7.5 7.5 0 1 0 15 0 a7.5 7.5 0 1 0 -15 0zM2194.54 1582.73 a7.5 7.5 0 1 0 15 0 a7.5 7.5 0 1 0 -15 0zM2454.36 532.73 a7.5 7.5 0 1 0 15 0 a7.5 7.5 0 1 0 -15 0zM2519.31 570.23 a7.5 7.5 0 1 0 15 0 a7.5 7.5 0 1 0 -15 0zM2519.31 645.23 a7.5 7.5 0 1 0 15 0 a7.5 7.5 0 1 0 -15 0zM2454.36 682.73 a7.5 7.5 0 1 0 15 0 a7.5 7.5 0 1 0 -15 0zM2389.41 645.23 a7.5 7.5 0 1 0 15 0 a7.5 7.5 0 1 0 -15 0zM2389.41 570.23 a7.5 7.5 0 1 0 15 0 a7.5 7.5 0 1 0 -15 0zM2454.36 757.73 a7.5 7.5 0 1 0 15 0 a7.5 7.5 0 1 0 -15 0zM2389.41 795.23 a7.5 7.5 0 1 0 15 0 a7.5 7.5 0 1 0 -15 0zM2389.41 870.23 a7.5 7.5 0 1 0 15 0 a7.5 7.5 0 1 0 -15 0zM2454.36 907.73 a7.5 7.5 0 1 0 15 0 a7.5 7.5 0 1 0 -15 0zM2454.36 982.73 a7.5 7.5 0 1 0 15 0 a7.5 7.5 0 1 0 -15 0zM2389.41 1020.23 a7.5 7.5 0 1 0 15 0 a7.5 7.5 0 1 0 -15 0zM2519.31 1020.23 a7.5 7.5 0 1 0 15 0 a7.5 7.5 0 1 0 -15 0zM2519.31 1095.23 a7.5 7.5 0 1 0 15 0 a7.5 7.5 0 1 0 -15 0zM2454.36 1132.73 a7.5 7.5 0 1 0 15 0 a7.5 7.5 0 1 0 -15 0zM2389.41 1095.23 a7.5 7.5 0 1 0 15 0 a7.5 7.5 0 1 0 -15 0z" fill="#03305d"></path>
        <path d="M82.4 689.04L130.04 716.54L130.04 771.54L82.4 799.04L34.77 771.54L34.77 716.54zM82.4 854.04L130.04 881.54L130.04 936.54L82.4 964.04L34.77 936.54L34.77 881.54zM82.4 1019.04L130.04 1046.54L130.04 1101.54L82.4 1129.04L34.77 1101.54L34.77 1046.54zM34.77 1101.54L82.4 1129.04L82.4 1184.04L34.77 1211.54L-12.86 1184.04L-12.86 1129.04zM130.04 -53.46L177.67 -25.96L177.67 29.04L130.04 56.54L82.4 29.04L82.4 -25.96zM177.67 29.04L225.3 56.54L225.3 111.54L177.67 139.04L130.04 111.54L130.04 56.54zM177.67 524.04L225.3 551.54L225.3 606.54L177.67 634.04L130.04 606.54L130.04 551.54zM130.04 771.54L177.67 799.04L177.67 854.04L130.04 881.54L82.4 854.04L82.4 799.04zM177.67 1019.04L225.3 1046.54L225.3 1101.54L177.67 1129.04L130.04 1101.54L130.04 1046.54zM130.04 1101.54L177.67 1129.04L177.67 1184.04L130.04 1211.54L82.4 1184.04L82.4 1129.04zM177.67 1349.04L225.3 1376.54L225.3 1431.54L177.67 1459.04L130.04 1431.54L130.04 1376.54zM130.04 1431.54L177.67 1459.04L177.67 1514.04L130.04 1541.54L82.4 1514.04L82.4 1459.04zM272.93 359.04L320.57 386.54L320.57 441.54L272.93 469.04L225.3 441.54L225.3 386.54zM225.3 606.54L272.93 634.04L272.93 689.04L225.3 716.54L177.67 689.04L177.67 634.04zM272.93 1019.04L320.57 1046.54L320.57 1101.54L272.93 1129.04L225.3 1101.54L225.3 1046.54zM272.93 1184.04L320.57 1211.54L320.57 1266.54L272.93 1294.04L225.3 1266.54L225.3 1211.54zM225.3 1266.54L272.93 1294.04L272.93 1349.04L225.3 1376.54L177.67 1349.04L177.67 1294.04zM225.3 1431.54L272.93 1459.04L272.93 1514.04L225.3 1541.54L177.67 1514.04L177.67 1459.04zM368.2 29.04L415.83 56.54L415.83 111.54L368.2 139.04L320.57 111.54L320.57 56.54zM368.2 359.04L415.83 386.54L415.83 441.54L368.2 469.04L320.57 441.54L320.57 386.54zM320.57 441.54L368.2 469.04L368.2 524.04L320.57 551.54L272.93 524.04L272.93 469.04zM368.2 689.04L415.83 716.54L415.83 771.54L368.2 799.04L320.57 771.54L320.57 716.54zM368.2 1019.04L415.83 1046.54L415.83 1101.54L368.2 1129.04L320.57 1101.54L320.57 1046.54zM463.46 29.04L511.1 56.54L511.1 111.54L463.46 139.04L415.83 111.54L415.83 56.54zM415.83 111.54L463.46 139.04L463.46 194.04L415.83 221.54L368.2 194.04L368.2 139.04zM463.46 689.04L511.1 716.54L511.1 771.54L463.46 799.04L415.83 771.54L415.83 716.54zM415.83 936.54L463.46 964.04L463.46 1019.04L415.83 1046.54L368.2 1019.04L368.2 964.04zM415.83 1101.54L463.46 1129.04L463.46 1184.04L415.83 1211.54L368.2 1184.04L368.2 1129.04zM463.46 1184.04L511.1 1211.54L511.1 1266.54L463.46 1294.04L415.83 1266.54L415.83 1211.54zM558.73 194.04L606.36 221.54L606.36 276.54L558.73 304.04L511.1 276.54L511.1 221.54zM558.73 524.04L606.36 551.54L606.36 606.54L558.73 634.04L511.1 606.54L511.1 551.54zM511.1 606.54L558.73 634.04L558.73 689.04L511.1 716.54L463.46 689.04L463.46 634.04zM558.73 689.04L606.36 716.54L606.36 771.54L558.73 799.04L511.1 771.54L511.1 716.54zM511.1 936.54L558.73 964.04L558.73 1019.04L511.1 1046.54L463.46 1019.04L463.46 964.04zM511.1 1101.54L558.73 1129.04L558.73 1184.04L511.1 1211.54L463.46 1184.04L463.46 1129.04zM558.73 1184.04L606.36 1211.54L606.36 1266.54L558.73 1294.04L511.1 1266.54L511.1 1211.54zM511.1 1266.54L558.73 1294.04L558.73 1349.04L511.1 1376.54L463.46 1349.04L463.46 1294.04zM511.1 1431.54L558.73 1459.04L558.73 1514.04L511.1 1541.54L463.46 1514.04L463.46 1459.04zM654 29.04L701.63 56.54L701.63 111.54L654 139.04L606.36 111.54L606.36 56.54zM606.36 111.54L654 139.04L654 194.04L606.36 221.54L558.73 194.04L558.73 139.04zM654 359.04L701.63 386.54L701.63 441.54L654 469.04L606.36 441.54L606.36 386.54zM606.36 771.54L654 799.04L654 854.04L606.36 881.54L558.73 854.04L558.73 799.04zM606.36 936.54L654 964.04L654 1019.04L606.36 1046.54L558.73 1019.04L558.73 964.04zM606.36 1101.54L654 1129.04L654 1184.04L606.36 1211.54L558.73 1184.04L558.73 1129.04zM606.36 1431.54L654 1459.04L654 1514.04L606.36 1541.54L558.73 1514.04L558.73 1459.04zM701.63 441.54L749.26 469.04L749.26 524.04L701.63 551.54L654 524.04L654 469.04zM701.63 606.54L749.26 634.04L749.26 689.04L701.63 716.54L654 689.04L654 634.04zM749.26 854.04L796.89 881.54L796.89 936.54L749.26 964.04L701.63 936.54L701.63 881.54zM796.89 -53.46L844.53 -25.96L844.53 29.04L796.89 56.54L749.26 29.04L749.26 -25.96zM796.89 111.54L844.53 139.04L844.53 194.04L796.89 221.54L749.26 194.04L749.26 139.04zM844.53 194.04L892.16 221.54L892.16 276.54L844.53 304.04L796.89 276.54L796.89 221.54zM796.89 276.54L844.53 304.04L844.53 359.04L796.89 386.54L749.26 359.04L749.26 304.04zM844.53 524.04L892.16 551.54L892.16 606.54L844.53 634.04L796.89 606.54L796.89 551.54zM844.53 689.04L892.16 716.54L892.16 771.54L844.53 799.04L796.89 771.54L796.89 716.54zM796.89 1101.54L844.53 1129.04L844.53 1184.04L796.89 1211.54L749.26 1184.04L749.26 1129.04zM796.89 1266.54L844.53 1294.04L844.53 1349.04L796.89 1376.54L749.26 1349.04L749.26 1294.04zM844.53 1349.04L892.16 1376.54L892.16 1431.54L844.53 1459.04L796.89 1431.54L796.89 1376.54zM796.89 1431.54L844.53 1459.04L844.53 1514.04L796.89 1541.54L749.26 1514.04L749.26 1459.04zM844.53 1514.04L892.16 1541.54L892.16 1596.54L844.53 1624.04L796.89 1596.54L796.89 1541.54zM892.16 -53.46L939.79 -25.96L939.79 29.04L892.16 56.54L844.53 29.04L844.53 -25.96zM939.79 194.04L987.42 221.54L987.42 276.54L939.79 304.04L892.16 276.54L892.16 221.54zM892.16 276.54L939.79 304.04L939.79 359.04L892.16 386.54L844.53 359.04L844.53 304.04zM892.16 771.54L939.79 799.04L939.79 854.04L892.16 881.54L844.53 854.04L844.53 799.04zM939.79 854.04L987.42 881.54L987.42 936.54L939.79 964.04L892.16 936.54L892.16 881.54zM939.79 1019.04L987.42 1046.54L987.42 1101.54L939.79 1129.04L892.16 1101.54L892.16 1046.54zM939.79 1184.04L987.42 1211.54L987.42 1266.54L939.79 1294.04L892.16 1266.54L892.16 1211.54zM939.79 1349.04L987.42 1376.54L987.42 1431.54L939.79 1459.04L892.16 1431.54L892.16 1376.54zM1035.06 29.04L1082.69 56.54L1082.69 111.54L1035.06 139.04L987.42 111.54L987.42 56.54zM1035.06 194.04L1082.69 221.54L1082.69 276.54L1035.06 304.04L987.42 276.54L987.42 221.54zM1035.06 1349.04L1082.69 1376.54L1082.69 1431.54L1035.06 1459.04L987.42 1431.54L987.42 1376.54zM987.42 1431.54L1035.06 1459.04L1035.06 1514.04L987.42 1541.54L939.79 1514.04L939.79 1459.04zM1130.32 29.04L1177.96 56.54L1177.96 111.54L1130.32 139.04L1082.69 111.54L1082.69 56.54zM1130.32 194.04L1177.96 221.54L1177.96 276.54L1130.32 304.04L1082.69 276.54L1082.69 221.54zM1130.32 359.04L1177.96 386.54L1177.96 441.54L1130.32 469.04L1082.69 441.54L1082.69 386.54zM1082.69 441.54L1130.32 469.04L1130.32 524.04L1082.69 551.54L1035.06 524.04L1035.06 469.04zM1082.69 606.54L1130.32 634.04L1130.32 689.04L1082.69 716.54L1035.06 689.04L1035.06 634.04zM1082.69 771.54L1130.32 799.04L1130.32 854.04L1082.69 881.54L1035.06 854.04L1035.06 799.04zM1082.69 936.54L1130.32 964.04L1130.32 1019.04L1082.69 1046.54L1035.06 1019.04L1035.06 964.04zM1130.32 1019.04L1177.96 1046.54L1177.96 1101.54L1130.32 1129.04L1082.69 1101.54L1082.69 1046.54zM1130.32 1184.04L1177.96 1211.54L1177.96 1266.54L1130.32 1294.04L1082.69 1266.54L1082.69 1211.54zM1130.32 1349.04L1177.96 1376.54L1177.96 1431.54L1130.32 1459.04L1082.69 1431.54L1082.69 1376.54zM1177.96 111.54L1225.59 139.04L1225.59 194.04L1177.96 221.54L1130.32 194.04L1130.32 139.04zM1177.96 441.54L1225.59 469.04L1225.59 524.04L1177.96 551.54L1130.32 524.04L1130.32 469.04zM1177.96 771.54L1225.59 799.04L1225.59 854.04L1177.96 881.54L1130.32 854.04L1130.32 799.04zM1225.59 854.04L1273.22 881.54L1273.22 936.54L1225.59 964.04L1177.96 936.54L1177.96 881.54zM1177.96 936.54L1225.59 964.04L1225.59 1019.04L1177.96 1046.54L1130.32 1019.04L1130.32 964.04zM1225.59 1019.04L1273.22 1046.54L1273.22 1101.54L1225.59 1129.04L1177.96 1101.54L1177.96 1046.54zM1320.85 29.04L1368.49 56.54L1368.49 111.54L1320.85 139.04L1273.22 111.54L1273.22 56.54zM1273.22 276.54L1320.85 304.04L1320.85 359.04L1273.22 386.54L1225.59 359.04L1225.59 304.04zM1273.22 441.54L1320.85 469.04L1320.85 524.04L1273.22 551.54L1225.59 524.04L1225.59 469.04zM1320.85 689.04L1368.49 716.54L1368.49 771.54L1320.85 799.04L1273.22 771.54L1273.22 716.54zM1320.85 854.04L1368.49 881.54L1368.49 936.54L1320.85 964.04L1273.22 936.54L1273.22 881.54zM1273.22 1266.54L1320.85 1294.04L1320.85 1349.04L1273.22 1376.54L1225.59 1349.04L1225.59 1294.04zM1320.85 1349.04L1368.49 1376.54L1368.49 1431.54L1320.85 1459.04L1273.22 1431.54L1273.22 1376.54zM1416.12 854.04L1463.75 881.54L1463.75 936.54L1416.12 964.04L1368.49 936.54L1368.49 881.54zM1416.12 1019.04L1463.75 1046.54L1463.75 1101.54L1416.12 1129.04L1368.49 1101.54L1368.49 1046.54zM1416.12 1184.04L1463.75 1211.54L1463.75 1266.54L1416.12 1294.04L1368.49 1266.54L1368.49 1211.54zM1416.12 1349.04L1463.75 1376.54L1463.75 1431.54L1416.12 1459.04L1368.49 1431.54L1368.49 1376.54zM1416.12 1514.04L1463.75 1541.54L1463.75 1596.54L1416.12 1624.04L1368.49 1596.54L1368.49 1541.54zM1463.75 111.54L1511.39 139.04L1511.39 194.04L1463.75 221.54L1416.12 194.04L1416.12 139.04zM1511.39 194.04L1559.02 221.54L1559.02 276.54L1511.39 304.04L1463.75 276.54L1463.75 221.54zM1463.75 441.54L1511.39 469.04L1511.39 524.04L1463.75 551.54L1416.12 524.04L1416.12 469.04zM1511.39 524.04L1559.02 551.54L1559.02 606.54L1511.39 634.04L1463.75 606.54L1463.75 551.54zM1559.02 441.54L1606.65 469.04L1606.65 524.04L1559.02 551.54L1511.39 524.04L1511.39 469.04zM1606.65 524.04L1654.28 551.54L1654.28 606.54L1606.65 634.04L1559.02 606.54L1559.02 551.54zM1606.65 854.04L1654.28 881.54L1654.28 936.54L1606.65 964.04L1559.02 936.54L1559.02 881.54zM1606.65 1019.04L1654.28 1046.54L1654.28 1101.54L1606.65 1129.04L1559.02 1101.54L1559.02 1046.54zM1606.65 1349.04L1654.28 1376.54L1654.28 1431.54L1606.65 1459.04L1559.02 1431.54L1559.02 1376.54zM1701.92 194.04L1749.55 221.54L1749.55 276.54L1701.92 304.04L1654.28 276.54L1654.28 221.54zM1654.28 771.54L1701.92 799.04L1701.92 854.04L1654.28 881.54L1606.65 854.04L1606.65 799.04zM1701.92 854.04L1749.55 881.54L1749.55 936.54L1701.92 964.04L1654.28 936.54L1654.28 881.54zM1654.28 936.54L1701.92 964.04L1701.92 1019.04L1654.28 1046.54L1606.65 1019.04L1606.65 964.04zM1654.28 1101.54L1701.92 1129.04L1701.92 1184.04L1654.28 1211.54L1606.65 1184.04L1606.65 1129.04zM1701.92 1184.04L1749.55 1211.54L1749.55 1266.54L1701.92 1294.04L1654.28 1266.54L1654.28 1211.54zM1749.55 -53.46L1797.18 -25.96L1797.18 29.04L1749.55 56.54L1701.92 29.04L1701.92 -25.96zM1749.55 111.54L1797.18 139.04L1797.18 194.04L1749.55 221.54L1701.92 194.04L1701.92 139.04zM1797.18 1184.04L1844.81 1211.54L1844.81 1266.54L1797.18 1294.04L1749.55 1266.54L1749.55 1211.54zM1749.55 1266.54L1797.18 1294.04L1797.18 1349.04L1749.55 1376.54L1701.92 1349.04L1701.92 1294.04zM1797.18 1349.04L1844.81 1376.54L1844.81 1431.54L1797.18 1459.04L1749.55 1431.54L1749.55 1376.54zM1844.81 276.54L1892.45 304.04L1892.45 359.04L1844.81 386.54L1797.18 359.04L1797.18 304.04zM1892.45 689.04L1940.08 716.54L1940.08 771.54L1892.45 799.04L1844.81 771.54L1844.81 716.54zM1844.81 1101.54L1892.45 1129.04L1892.45 1184.04L1844.81 1211.54L1797.18 1184.04L1797.18 1129.04zM1844.81 1266.54L1892.45 1294.04L1892.45 1349.04L1844.81 1376.54L1797.18 1349.04L1797.18 1294.04zM1892.45 1349.04L1940.08 1376.54L1940.08 1431.54L1892.45 1459.04L1844.81 1431.54L1844.81 1376.54zM1987.71 29.04L2035.35 56.54L2035.35 111.54L1987.71 139.04L1940.08 111.54L1940.08 56.54zM1987.71 194.04L2035.35 221.54L2035.35 276.54L1987.71 304.04L1940.08 276.54L1940.08 221.54zM1940.08 441.54L1987.71 469.04L1987.71 524.04L1940.08 551.54L1892.45 524.04L1892.45 469.04zM1940.08 606.54L1987.71 634.04L1987.71 689.04L1940.08 716.54L1892.45 689.04L1892.45 634.04zM1987.71 854.04L2035.35 881.54L2035.35 936.54L1987.71 964.04L1940.08 936.54L1940.08 881.54zM1940.08 1101.54L1987.71 1129.04L1987.71 1184.04L1940.08 1211.54L1892.45 1184.04L1892.45 1129.04zM1940.08 1266.54L1987.71 1294.04L1987.71 1349.04L1940.08 1376.54L1892.45 1349.04L1892.45 1294.04zM2082.98 194.04L2130.61 221.54L2130.61 276.54L2082.98 304.04L2035.35 276.54L2035.35 221.54zM2035.35 606.54L2082.98 634.04L2082.98 689.04L2035.35 716.54L1987.71 689.04L1987.71 634.04zM2082.98 689.04L2130.61 716.54L2130.61 771.54L2082.98 799.04L2035.35 771.54L2035.35 716.54zM2035.35 771.54L2082.98 799.04L2082.98 854.04L2035.35 881.54L1987.71 854.04L1987.71 799.04zM2082.98 854.04L2130.61 881.54L2130.61 936.54L2082.98 964.04L2035.35 936.54L2035.35 881.54zM2082.98 1514.04L2130.61 1541.54L2130.61 1596.54L2082.98 1624.04L2035.35 1596.54L2035.35 1541.54zM2178.24 524.04L2225.88 551.54L2225.88 606.54L2178.24 634.04L2130.61 606.54L2130.61 551.54zM2130.61 606.54L2178.24 634.04L2178.24 689.04L2130.61 716.54L2082.98 689.04L2082.98 634.04zM2178.24 854.04L2225.88 881.54L2225.88 936.54L2178.24 964.04L2130.61 936.54L2130.61 881.54zM2130.61 936.54L2178.24 964.04L2178.24 1019.04L2130.61 1046.54L2082.98 1019.04L2082.98 964.04zM2178.24 1514.04L2225.88 1541.54L2225.88 1596.54L2178.24 1624.04L2130.61 1596.54L2130.61 1541.54zM2225.88 -53.46L2273.51 -25.96L2273.51 29.04L2225.88 56.54L2178.24 29.04L2178.24 -25.96zM2273.51 359.04L2321.14 386.54L2321.14 441.54L2273.51 469.04L2225.88 441.54L2225.88 386.54zM2225.88 441.54L2273.51 469.04L2273.51 524.04L2225.88 551.54L2178.24 524.04L2178.24 469.04zM2273.51 524.04L2321.14 551.54L2321.14 606.54L2273.51 634.04L2225.88 606.54L2225.88 551.54zM2225.88 1101.54L2273.51 1129.04L2273.51 1184.04L2225.88 1211.54L2178.24 1184.04L2178.24 1129.04zM2225.88 1266.54L2273.51 1294.04L2273.51 1349.04L2225.88 1376.54L2178.24 1349.04L2178.24 1294.04zM2321.14 -53.46L2368.77 -25.96L2368.77 29.04L2321.14 56.54L2273.51 29.04L2273.51 -25.96zM2368.77 29.04L2416.41 56.54L2416.41 111.54L2368.77 139.04L2321.14 111.54L2321.14 56.54zM2321.14 276.54L2368.77 304.04L2368.77 359.04L2321.14 386.54L2273.51 359.04L2273.51 304.04zM2321.14 441.54L2368.77 469.04L2368.77 524.04L2321.14 551.54L2273.51 524.04L2273.51 469.04zM2368.77 689.04L2416.41 716.54L2416.41 771.54L2368.77 799.04L2321.14 771.54L2321.14 716.54zM2321.14 771.54L2368.77 799.04L2368.77 854.04L2321.14 881.54L2273.51 854.04L2273.51 799.04zM2321.14 1266.54L2368.77 1294.04L2368.77 1349.04L2321.14 1376.54L2273.51 1349.04L2273.51 1294.04zM2321.14 1431.54L2368.77 1459.04L2368.77 1514.04L2321.14 1541.54L2273.51 1514.04L2273.51 1459.04zM2368.77 1514.04L2416.41 1541.54L2416.41 1596.54L2368.77 1624.04L2321.14 1596.54L2321.14 1541.54zM2416.41 -53.46L2464.04 -25.96L2464.04 29.04L2416.41 56.54L2368.77 29.04L2368.77 -25.96zM2464.04 29.04L2511.67 56.54L2511.67 111.54L2464.04 139.04L2416.41 111.54L2416.41 56.54zM2416.41 606.54L2464.04 634.04L2464.04 689.04L2416.41 716.54L2368.77 689.04L2368.77 634.04zM2464.04 1019.04L2511.67 1046.54L2511.67 1101.54L2464.04 1129.04L2416.41 1101.54L2416.41 1046.54zM2464.04 1184.04L2511.67 1211.54L2511.67 1266.54L2464.04 1294.04L2416.41 1266.54L2416.41 1211.54zM2416.41 1266.54L2464.04 1294.04L2464.04 1349.04L2416.41 1376.54L2368.77 1349.04L2368.77 1294.04zM2416.41 1431.54L2464.04 1459.04L2464.04 1514.04L2416.41 1541.54L2368.77 1514.04L2368.77 1459.04z" stroke="rgba(6, 80, 156, 0.93)" stroke-width="2"></path>
    </g>
    <defs>
        <mask id="SvgjsMask1376">
            <rect width="2460" height="1600" fill="#ffffff"></rect>
        </mask>
        <linearGradient x1="8.74%" y1="-13.44%" x2="91.26%" y2="113.44%" gradientUnits="userSpaceOnUse" id="SvgjsLinearGradient1377">
            <stop stop-color="#0e2a47" offset="0"></stop>
            <stop stop-color="rgba(0, 64, 147, 1)" offset="1"></stop>
        </linearGradient>
    </defs>
</svg>